<?xml version="1.0" standalone="no"?>
<!DOCTYPE svg PUBLIC "-//W3C//DTD SVG 20010904//EN"
 "http://www.w3.org/TR/2001/REC-SVG-20010904/DTD/svg10.dtd">
<svg version="1.0" xmlns="http://www.w3.org/2000/svg"
width="50px" height="39px"
viewBox="0 0 778.000000 1094.000000"
 preserveAspectRatio="xMidYMid meet">
<g transform="translate(0.000000,1094.000000) scale(0.100000,-0.100000)"
fill="#000000" stroke="none">
<path d="M3238 10650 c14 -17 16 -34 2 -25 -14 8 -13 -8 1 -22 8 -8 6 -11 -7
-10 -13 1 -18 -4 -16 -15 4 -25 -11 -22 -48 8 -46 39 -47 22 0 -20 22 -20 40
-39 40 -43 0 -4 -5 -2 -12 5 -7 7 -16 12 -22 12 -18 0 13 -24 46 -34 17 -6 34
-18 36 -26 4 -11 0 -10 -16 4 -12 10 -28 16 -36 13 -16 -6 -51 27 -42 41 6 9
-31 48 -43 46 -3 -1 -5 1 -5 5 1 3 -15 19 -35 36 -30 25 -33 25 -13 4 12 -14
22 -29 22 -35 1 -5 14 -24 30 -43 16 -19 28 -37 26 -39 -7 -6 -49 20 -68 42
-14 17 -17 18 -18 5 0 -9 7 -19 15 -23 8 -3 15 -13 15 -21 0 -10 5 -13 13 -9
9 5 9 4 1 -5 -11 -12 -47 -4 -39 9 3 4 -2 13 -10 20 -12 10 -15 9 -15 -5 0
-16 -2 -16 -17 2 -10 10 -14 13 -9 6 5 -8 4 -13 -3 -13 -6 0 -16 9 -23 20 -7
11 -17 20 -22 20 -4 0 -3 -7 4 -15 7 -8 8 -15 2 -15 -5 0 -15 7 -22 15 -7 8
-17 12 -22 9 -5 -3 -23 7 -40 22 l-30 29 7 -25 c4 -14 17 -35 28 -47 18 -20
12 -34 -7 -15 -4 4 -11 7 -14 7 -4 1 -18 7 -32 14 -18 9 -15 5 10 -17 l35 -29
-28 0 c-15 0 -27 4 -27 9 0 5 5 6 12 2 7 -4 8 -3 4 5 -4 6 -11 9 -16 6 -4 -3
-25 14 -45 37 -34 38 -35 39 -11 6 14 -20 26 -41 26 -47 0 -6 3 -11 8 -11 4 0
13 -9 20 -21 16 -25 13 -23 -63 29 l-50 34 45 -42 c25 -24 36 -39 25 -35 -11
4 -27 7 -35 8 -8 0 -21 4 -27 10 -7 5 -13 6 -13 2 0 -4 -8 -1 -17 6 -11 10
-14 10 -9 2 9 -16 -6 -17 -22 -1 -7 7 -12 8 -12 3 0 -5 -12 2 -27 16 -19 16
-16 11 8 -16 64 -72 64 -74 43 -91 -10 -9 -13 -13 -6 -9 6 3 12 1 12 -5 0 -6
-8 -10 -17 -8 -10 2 -17 9 -16 14 1 5 -7 10 -18 10 -23 0 -23 -1 -3 -20 14
-15 14 -16 -1 -16 -9 0 -19 9 -22 20 -5 19 -29 32 -68 35 -11 1 -20 8 -20 16
0 8 -10 15 -22 17 -13 2 -23 7 -23 12 0 4 -8 11 -17 14 -10 3 3 -14 28 -38 26
-25 42 -47 36 -49 -6 -2 -6 -10 2 -25 l12 -22 -33 20 c-18 10 -51 26 -73 35
l-40 16 25 -20 c14 -11 26 -25 26 -30 1 -6 2 -18 3 -26 0 -8 8 -15 18 -15 15
0 15 1 0 18 -15 17 -15 18 3 19 11 1 22 -2 25 -8 3 -5 -1 -6 -11 -2 -15 6 -15
4 0 -19 20 -30 7 -41 -31 -27 -14 5 -23 5 -23 -1 0 -5 -8 -7 -17 -3 -43 15 26
-30 90 -59 15 -7 27 -16 27 -20 0 -9 -66 16 -86 33 -7 6 -39 13 -70 15 -32 3
-71 12 -88 21 l-31 15 29 -31 c16 -17 27 -33 24 -36 -7 -8 -38 5 -38 16 0 5
-8 9 -17 9 -14 0 -12 -4 7 -25 27 -29 21 -32 -15 -9 -14 9 -25 12 -25 6 0 -5
16 -17 35 -26 19 -9 35 -19 35 -22 0 -2 -20 -3 -45 0 -25 2 -43 0 -39 -5 3 -5
-1 -9 -8 -9 -8 0 -6 -5 5 -11 25 -14 21 -31 -5 -24 -20 5 -19 3 7 -19 20 -17
25 -26 15 -26 -9 0 -20 4 -25 9 -10 9 -52 15 -85 12 -24 -2 13 -21 50 -25 41
-5 51 -16 14 -16 -17 0 -35 -5 -42 -12 -9 -9 -12 -9 -12 0 0 7 -10 12 -22 12
-19 0 -20 -2 -8 -10 11 -7 0 -10 -40 -11 l-55 -1 54 -10 c38 -7 50 -13 40 -19
-14 -8 -10 -11 21 -13 30 -2 9 -21 -27 -24 -26 -3 -33 -6 -23 -12 29 -18 -8
-35 -73 -35 -34 -1 -73 -7 -87 -15 l-25 -14 30 -6 c25 -5 27 -7 12 -13 -27
-10 -69 -9 -62 3 3 6 2 10 -4 10 -6 0 -15 -8 -20 -17 -8 -16 -4 -18 47 -15 60
4 65 -12 7 -21 -17 -2 -4 -5 29 -6 51 -1 57 -3 46 -16 -9 -11 -9 -15 -1 -15 7
0 9 -4 6 -10 -3 -5 -15 -10 -26 -10 -11 0 -18 -4 -14 -9 3 -5 21 -7 41 -5 22
3 33 1 29 -6 -3 -5 -17 -10 -31 -10 -21 0 -24 -4 -20 -25 3 -17 0 -25 -10 -25
-8 0 -14 5 -14 10 0 6 -7 10 -16 10 -8 0 -12 -4 -9 -10 3 -5 -1 -10 -9 -10 -9
0 -16 -4 -16 -10 0 -5 -8 -10 -17 -10 -14 0 -15 -2 -4 -9 16 -10 10 -14 -51
-32 -26 -7 -42 -16 -36 -20 6 -4 1 -10 -13 -14 -20 -7 -58 -35 -47 -35 3 0 23
9 46 20 43 21 82 26 82 11 0 -4 -20 -14 -45 -21 -44 -12 -56 -33 -12 -23 l22
6 -20 -20 c-11 -11 -29 -25 -40 -32 -20 -12 -20 -12 0 -5 11 3 31 9 45 11 14
3 32 7 40 10 8 3 22 7 30 9 15 3 11 -1 -37 -33 -16 -11 -14 -12 12 -7 23 5 19
1 -20 -20 -27 -14 -56 -26 -63 -26 -7 0 -15 -7 -18 -15 -4 -8 -18 -15 -33 -15
-16 -1 -33 -10 -44 -25 -17 -24 -17 -24 10 -22 20 1 27 -2 25 -13 -1 -9 5 -7
17 8 25 29 40 28 37 -3 -2 -13 1 -22 5 -19 5 3 9 0 9 -6 0 -6 5 -8 10 -5 6 4
7 11 4 17 -5 7 -2 8 5 3 14 -8 -1 -30 -22 -30 -7 -1 -11 -6 -9 -13 1 -7 -5
-12 -13 -12 -8 0 -15 -7 -15 -15 0 -8 -6 -15 -13 -15 -7 0 -22 -7 -33 -16 -18
-15 -18 -15 3 -5 12 6 31 11 43 11 12 0 19 4 16 8 -2 4 9 8 26 7 17 0 33 -6
35 -12 3 -7 0 -13 -7 -13 -6 0 -8 5 -4 13 7 11 -84 -58 -96 -74 -3 -3 -15 -11
-27 -17 -14 -8 -20 -18 -16 -31 5 -19 5 -19 38 0 22 13 36 16 40 9 3 -6 -3
-10 -15 -10 -16 0 -20 -4 -16 -16 4 -11 -1 -22 -14 -31 -12 -8 -19 -21 -16
-29 3 -7 1 -16 -4 -19 -15 -9 -12 -25 5 -25 18 0 20 -16 3 -24 -7 -3 -2 -3 12
1 14 3 36 6 48 5 13 -1 33 5 45 13 14 10 24 11 33 4 9 -7 4 -17 -17 -40 -16
-17 -29 -35 -29 -40 0 -6 -8 -21 -17 -36 -9 -14 -17 -34 -18 -44 -1 -16 1 -16
26 4 15 12 28 27 28 33 1 14 36 46 43 39 2 -3 15 6 28 20 13 14 27 25 31 25
14 0 -4 -42 -22 -53 -11 -7 -19 -16 -19 -21 0 -5 -11 -23 -23 -40 -14 -17 -24
-46 -25 -65 -1 -30 0 -32 13 -15 8 11 15 24 15 29 0 6 11 27 25 47 14 20 25
44 25 52 0 9 5 16 10 16 16 0 12 -18 -11 -49 -11 -15 -21 -35 -23 -44 -1 -9
-16 -38 -33 -64 -41 -64 -51 -101 -28 -109 10 -4 21 -1 26 7 8 11 9 9 7 -6 -1
-11 1 -25 5 -32 4 -6 3 -14 -3 -18 -5 -3 -10 -16 -10 -29 0 -12 -5 -27 -12
-34 -7 -7 -8 -12 -2 -12 5 0 15 5 22 12 6 6 15 9 19 5 4 -4 1 -13 -5 -19 -17
-17 -15 -38 3 -38 11 0 15 -11 15 -40 0 -29 4 -40 15 -40 13 0 21 -31 16 -62
0 -5 3 -8 8 -8 5 0 12 -19 16 -41 5 -29 13 -43 27 -47 12 -3 17 -10 13 -20 -3
-8 2 -25 10 -38 9 -13 11 -24 7 -24 -5 0 -7 -12 -4 -26 3 -19 7 -23 14 -12 6
9 8 2 5 -22 -2 -19 0 -46 5 -60 16 -43 17 -182 2 -207 -13 -20 -13 -23 1 -23
17 0 20 -27 5 -50 -10 -17 6 -31 27 -23 8 3 11 14 7 30 -5 18 0 31 21 53 15
16 24 33 21 38 -4 6 2 8 14 5 14 -4 25 -21 35 -55 8 -28 19 -56 24 -62 7 -8 2
-12 -16 -14 -33 -3 -40 -9 -25 -24 18 -18 15 -25 -17 -36 -16 -6 -35 -21 -42
-34 -6 -13 -8 -20 -4 -16 15 14 45 -12 45 -39 0 -16 12 -37 31 -55 17 -16 28
-32 26 -35 -5 -4 -30 14 -62 45 -22 20 -31 14 -50 -34 -29 -77 -17 -240 34
-442 23 -90 49 -180 58 -200 9 -20 15 -40 15 -44 -1 -5 2 -8 8 -8 5 0 7 -6 4
-14 -3 -8 -1 -17 5 -21 6 -3 11 -15 11 -26 0 -23 13 -25 31 -3 10 13 6 29 -29
102 -22 48 -48 107 -57 132 -21 57 -21 186 -1 255 9 28 20 85 26 128 17 125
31 138 26 25 -4 -95 -4 -96 20 -102 15 -4 24 -14 24 -25 0 -23 -28 -35 -45
-21 -31 26 -60 -147 -38 -222 18 -61 88 -214 102 -222 15 -10 14 -67 -1 -63
-33 6 -64 -133 -38 -173 6 -10 10 -11 10 -2 0 6 5 12 11 12 5 0 9 -12 8 -27
-1 -16 -1 -37 -1 -47 2 -19 2 -19 16 -1 12 17 13 17 20 -9 4 -15 11 -24 16
-21 5 3 10 -7 12 -22 3 -25 8 -28 42 -31 51 -4 99 15 90 37 -3 9 -8 25 -11 36
-3 11 -9 29 -13 40 -9 21 -47 179 -60 250 -23 123 -40 215 -45 250 -3 22 -9
67 -15 100 -28 186 -51 585 -32 585 15 0 49 -44 77 -98 22 -46 25 -58 16 -84
-14 -39 -14 -38 4 -32 10 4 14 14 10 28 -4 11 10 -10 30 -49 20 -38 42 -76 48
-84 9 -12 9 -13 -1 -7 -7 4 -22 26 -33 48 -16 32 -23 38 -31 27 -7 -10 -8 -7
-3 11 5 22 4 23 -5 7 -7 -10 -9 -25 -6 -33 3 -9 1 -25 -5 -36 -8 -16 -8 -19 1
-13 9 5 11 -1 8 -21 -3 -16 -3 -23 -1 -16 10 28 28 10 28 -27 1 -22 -2 -38 -5
-36 -4 2 -7 -18 -9 -46 -2 -56 5 -64 17 -17 10 38 38 46 45 12 2 -13 1 -21 -3
-19 -11 7 -19 -68 -9 -80 5 -5 9 -18 10 -30 1 -17 2 -17 8 4 4 14 12 26 19 29
14 4 16 -14 2 -23 -7 -4 -7 -13 0 -26 6 -11 16 -17 22 -13 6 4 9 1 6 -7 -3 -8
-11 -13 -18 -11 -9 2 -8 -5 4 -22 9 -14 16 -33 16 -41 0 -9 7 -23 15 -32 14
-14 15 -13 10 10 -4 14 -3 27 2 30 5 3 10 -3 11 -14 4 -42 6 -49 13 -49 5 0 6
-6 3 -14 -3 -8 4 -23 15 -33 12 -9 21 -22 21 -28 0 -5 -5 -3 -10 5 -8 13 -10
12 -10 -2 0 -16 10 -22 31 -20 4 1 4 -8 1 -20 -4 -16 -2 -19 9 -13 11 6 12 5
2 -6 -7 -7 -13 -22 -12 -34 0 -19 1 -19 8 0 6 15 9 11 14 -20 9 -53 9 -67 -1
-61 -4 2 -9 -14 -10 -37 -5 -70 -6 -76 -14 -71 -4 3 -8 13 -9 22 0 14 -2 14
-6 2 -3 -8 -10 -18 -15 -21 -5 -3 -3 -19 4 -35 6 -16 12 -33 12 -39 1 -5 9
-16 19 -23 9 -7 17 -21 17 -30 0 -15 -2 -15 -11 -2 -9 12 -10 12 -5 -3 3 -10
6 -21 6 -23 0 -3 5 -2 10 1 9 5 11 1 10 -20 -1 -12 32 -66 37 -62 2 3 0 15 -7
26 -6 12 -8 21 -6 21 3 0 12 -13 20 -29 12 -22 12 -31 3 -40 -9 -10 -9 -12 3
-9 11 2 15 -6 15 -34 0 -20 4 -40 9 -45 5 -5 6 -2 1 5 -5 10 -1 13 16 10 26
-3 39 -28 15 -28 -9 0 -16 -5 -16 -11 0 -5 5 -7 10 -4 13 8 13 -5 0 -25 -6 -9
-10 -10 -10 -3 0 6 -12 25 -26 42 -14 17 -22 31 -18 31 4 0 -2 8 -13 18 -11 9
-33 45 -49 79 -16 34 -35 62 -41 62 -7 1 -13 10 -13 21 0 11 -4 20 -10 20 -5
0 -7 6 -4 14 3 7 -1 16 -9 19 -9 3 -18 19 -22 35 -3 17 -13 33 -22 36 -13 5
-15 0 -10 -28 3 -19 1 -39 -6 -45 -9 -9 -8 -11 6 -5 15 5 16 3 8 -19 -8 -21
-7 -26 10 -30 10 -3 19 -10 19 -17 0 -6 -5 -8 -10 -5 -18 11 -6 -19 15 -39 15
-14 17 -20 7 -23 -10 -4 -10 -9 3 -22 9 -9 23 -25 31 -36 14 -19 14 -18 9 10
l-6 30 15 -25 c18 -29 23 -66 6 -40 -8 12 -10 12 -10 -5 0 -11 5 -27 11 -35 9
-13 10 -12 5 2 -3 12 -1 15 10 11 13 -5 13 -8 -1 -23 -17 -18 -11 -32 11 -23
23 8 28 -26 8 -50 -17 -19 -17 -20 -1 -8 15 12 17 12 11 -3 -4 -11 -1 -16 11
-16 12 0 15 5 11 17 -4 10 -4 14 0 10 4 -4 14 -1 23 6 9 7 6 -1 -6 -18 -14
-21 -19 -39 -16 -59 3 -15 9 -23 12 -17 5 7 14 6 30 -5 16 -12 20 -19 12 -27
-16 -16 -14 -27 5 -27 10 0 14 -6 10 -15 -7 -18 5 -20 23 -2 11 10 11 8 1 -13
-12 -23 -12 -24 4 -11 14 12 16 12 10 -3 -7 -19 -25 -21 -42 -4 -8 8 -12 8
-12 1 0 -23 26 -33 46 -19 13 10 24 11 36 5 17 -9 17 -12 1 -42 l-16 -32 -9
28 c-6 15 -14 27 -19 27 -16 0 -9 -17 26 -61 19 -24 35 -48 35 -52 0 -5 7 -15
15 -23 8 -9 15 -11 15 -6 0 5 11 12 25 14 14 3 25 1 25 -4 0 -5 4 -6 10 -3 6
3 10 1 10 -4 0 -6 -8 -11 -17 -12 -15 0 -15 -2 2 -8 12 -5 23 -4 27 3 5 7 8 7
8 1 0 -6 -5 -16 -12 -23 -15 -15 -8 -15 27 -2 16 6 23 14 19 22 -4 7 -3 8 4 4
6 -4 8 -14 5 -24 -5 -14 -3 -14 17 3 13 11 20 15 17 8 -4 -6 0 -13 10 -16 15
-4 14 -5 -3 -6 -19 -1 -67 -41 -49 -41 4 0 2 -6 -5 -14 -17 -22 -43 -8 -37 21
3 18 1 21 -8 13 -19 -16 -26 -63 -9 -56 13 5 18 -5 15 -31 -2 -16 4 -16 29 -3
12 6 16 17 13 30 -6 23 15 28 36 8 10 -11 11 -10 6 5 -4 9 -3 17 3 17 6 0 19
3 29 6 16 6 16 5 -2 -10 -11 -10 -14 -15 -7 -11 6 3 17 3 24 -1 16 -10 -18
-33 -41 -27 -10 3 -22 0 -25 -6 -4 -6 -2 -11 4 -11 6 0 18 -7 26 -15 21 -20
37 -19 30 3 -4 12 5 23 35 40 23 13 39 19 35 14 -3 -6 0 -13 6 -16 7 -4 4 -5
-8 -2 -12 2 -32 -5 -45 -16 -18 -15 -19 -18 -6 -14 10 3 28 1 39 -5 13 -7 18
-7 14 -1 -3 6 -2 13 4 17 9 6 14 -14 11 -42 -1 -7 4 -13 11 -13 9 0 9 -3 -2
-10 -8 -5 -12 -12 -8 -15 3 -3 13 2 22 11 20 19 34 11 17 -10 -9 -11 -9 -15 0
-18 15 -5 -6 -48 -24 -48 -7 0 -18 -10 -26 -21 -11 -18 -11 -23 1 -30 7 -5 9
-9 3 -9 -36 0 -39 31 -6 57 13 11 26 28 27 37 2 12 -1 14 -9 7 -13 -10 -17
-11 -45 -11 -10 0 -23 -12 -29 -27 l-12 -28 6 30 c7 37 6 36 32 38 11 1 22 6
23 12 4 30 2 41 -12 56 -16 16 -40 14 -40 -3 0 -6 7 -8 15 -5 8 4 17 2 20 -3
4 -6 -11 -9 -34 -8 -26 1 -38 5 -34 12 4 6 -1 5 -10 -3 -9 -7 -17 -10 -17 -5
0 5 -7 18 -15 28 -12 16 -17 17 -30 6 -20 -16 -19 -31 1 -23 14 5 15 3 3 -18
-7 -14 -14 -19 -17 -11 -7 21 -22 13 -22 -11 0 -18 -5 -23 -27 -22 -14 0 -28
6 -31 13 -2 6 -8 10 -12 7 -10 -6 9 -55 21 -55 4 0 9 7 13 15 9 25 48 -4 40
-30 -5 -16 -4 -18 7 -8 14 14 39 0 39 -22 0 -16 -42 -28 -50 -14 -4 5 -14 1
-24 -10 -10 -11 -13 -22 -8 -25 6 -3 12 0 15 7 3 8 16 13 29 11 35 -4 35 -5 3
-19 -19 -9 -24 -14 -12 -15 9 0 17 -5 17 -11 0 -5 -4 -8 -9 -4 -11 6 -44 -36
-35 -44 3 -3 10 2 15 12 11 18 39 24 39 7 0 -5 -6 -10 -14 -10 -18 0 -30 -30
-17 -43 6 -6 9 -2 8 9 -2 16 6 19 43 21 l45 2 -37 -20 c-27 -14 -38 -26 -37
-42 l0 -22 9 23 c13 32 24 27 17 -8 -6 -26 -3 -30 14 -30 18 0 20 -2 9 -15 -7
-9 -16 -12 -19 -8 -3 4 -15 15 -25 23 -17 14 -18 13 -12 -6 3 -12 2 -32 -4
-45 -10 -24 -10 -24 -5 3 3 15 1 30 -5 33 -6 4 -7 13 -1 24 9 15 6 17 -20 13
-33 -5 -33 -3 -17 -36 9 -21 14 -24 26 -14 13 11 14 9 7 -12 -11 -35 -13 -36
-36 -11 -28 29 -35 20 -13 -16 10 -16 12 -23 4 -15 -21 19 -30 15 -30 -14 0
-23 -2 -25 -16 -13 -14 12 -16 11 -12 -6 2 -11 10 -19 16 -18 18 4 15 -14 -4
-21 -11 -4 -13 -10 -5 -23 6 -12 5 -26 -5 -45 -9 -17 -10 -28 -4 -28 5 0 10
-4 10 -10 0 -5 -7 -10 -15 -10 -20 0 -19 -12 4 -37 27 -29 13 -38 -16 -11
l-24 23 10 -28 c15 -40 14 -43 -10 -21 -22 19 -22 19 -11 -2 6 -11 7 -26 3
-33 -12 -19 -49 3 -53 31 -2 13 -9 22 -15 21 -6 -1 -9 6 -6 16 5 20 -40 56
-57 46 -6 -3 -10 1 -10 9 0 8 5 18 10 21 6 3 10 11 10 18 0 6 -8 0 -17 -13
-10 -14 -17 -28 -16 -31 1 -4 -10 -17 -24 -30 -20 -18 -25 -20 -20 -7 5 15 4
16 -13 5 -11 -6 -20 -17 -20 -24 0 -7 -6 -10 -14 -7 -8 3 -17 1 -21 -5 -10
-17 -25 -13 -19 4 7 18 -28 20 -74 4 -27 -9 -29 -13 -22 -38 11 -38 30 -68
119 -181 158 -201 400 -468 446 -491 14 -7 12 -4 -5 10 -15 13 -20 21 -11 21
11 0 10 4 -3 19 -17 19 -17 19 3 14 12 -3 21 -13 21 -24 0 -21 12 -24 40 -9
16 8 18 7 14 -4 -8 -20 29 -39 45 -23 10 9 15 8 25 -6 20 -26 28 -20 21 15
l-7 32 25 -28 c17 -18 31 -25 39 -20 22 14 49 12 44 -3 -3 -7 -1 -14 4 -14 21
-3 26 -5 68 -29 23 -13 41 -29 38 -36 -3 -7 2 -10 14 -7 13 3 28 -5 44 -23 29
-33 33 -23 11 20 -16 30 -11 51 6 26 8 -13 11 -12 20 3 10 17 12 17 23 1 14
-18 36 -12 36 11 0 7 9 15 21 17 l21 3 -22 27 c-15 20 -19 32 -12 44 7 12 4
22 -9 35 -11 11 -22 19 -25 19 -10 0 -34 28 -34 39 0 6 5 11 10 11 6 0 10 -4
10 -10 0 -5 5 -10 12 -10 6 0 2 11 -10 23 l-22 24 22 12 c14 7 16 10 4 6 -14
-4 -17 -1 -12 11 5 14 4 15 -9 4 -11 -9 -15 -9 -15 -1 0 6 7 14 16 18 8 3 13
12 10 20 -4 10 -1 11 14 3 23 -13 35 3 15 20 -8 7 -15 18 -15 25 0 8 -6 16
-12 18 -8 3 -6 6 5 6 9 1 17 -3 17 -9 0 -5 9 -10 20 -10 11 0 20 -5 20 -11 0
-5 5 -7 10 -4 19 11 10 25 -16 25 -14 0 -23 4 -19 10 3 6 1 10 -4 10 -6 0 -11
4 -11 9 0 4 12 6 26 3 19 -3 25 -1 20 7 -11 17 25 13 55 -7 14 -9 24 -22 22
-29 -2 -7 5 -18 16 -25 12 -7 21 -18 21 -25 0 -6 9 -14 20 -18 11 -3 25 -16
32 -29 36 -62 54 -86 68 -87 10 0 8 -3 -5 -9 -11 -5 -14 -9 -7 -9 7 -1 10 -5
7 -11 -3 -5 0 -10 7 -10 9 0 9 -3 -2 -10 -13 -9 -13 -10 0 -11 8 -1 21 -1 29
0 7 2 31 -5 53 -14 21 -8 44 -13 49 -9 5 3 31 6 57 6 51 0 70 15 44 35 -15 11
-15 12 6 13 12 0 22 5 22 10 0 6 -4 10 -10 10 -19 0 -10 32 11 37 21 6 21 7 4
20 -18 13 -18 13 1 14 11 0 14 3 6 6 -10 4 -10 8 -1 19 9 11 7 14 -12 15 -22
0 -23 1 -4 9 19 8 19 8 -5 18 -14 6 -19 11 -12 11 21 1 13 17 -14 30 -17 7
-24 17 -20 26 3 8 2 15 -3 15 -5 0 -11 9 -14 20 -3 12 -14 20 -29 21 -17 1
-18 3 -5 6 15 4 14 9 -14 44 -20 25 -26 39 -17 40 7 1 0 5 -17 9 l-30 8 30 1
30 2 -25 14 c-14 8 -19 14 -12 15 7 0 11 4 8 9 -7 11 22 23 36 14 6 -3 8 -1 4
5 -3 6 6 13 24 17 32 7 32 25 0 25 -10 0 -21 4 -25 9 -3 5 8 9 25 9 17 -1 33
2 37 5 3 4 -5 7 -18 7 -21 1 -22 2 -7 11 10 5 15 16 11 25 -5 13 -2 15 17 9
15 -5 20 -4 16 3 -4 6 3 16 14 22 11 6 20 16 19 23 0 9 -2 9 -6 0 -2 -7 -9
-13 -15 -13 -17 0 13 30 31 31 9 1 5 4 -8 8 -14 4 -27 13 -29 20 -4 13 9 11
56 -6 6 -3 12 2 12 11 0 9 7 16 16 16 8 0 13 -4 10 -9 -4 -5 6 -5 22 1 19 8
28 18 28 34 0 12 -5 22 -10 21 -6 -1 -12 9 -13 23 -1 14 0 19 3 13 3 -7 12
-13 19 -13 7 0 16 6 19 13 3 6 3 -8 0 -33 -4 -39 -3 -42 6 -20 6 14 10 44 8
67 -2 34 -1 39 11 30 11 -10 13 -8 6 12 -4 15 -3 21 3 17 5 -3 16 1 23 10 12
14 14 14 20 -3 7 -17 8 -17 8 0 1 10 5 16 11 12 13 -8 1 -35 -15 -35 -7 0 -16
6 -18 13 -3 7 -6 5 -6 -5 -1 -10 3 -18 8 -18 5 0 11 -15 15 -32 5 -25 9 -30
16 -18 5 9 5 19 -2 27 -10 13 -5 25 29 61 9 10 14 9 23 -5 10 -16 11 -16 5 2
-13 37 -16 71 -6 56 5 -8 16 -11 24 -8 10 4 17 -1 20 -11 4 -15 5 -15 6 1 1
11 -8 21 -20 24 -17 5 -20 11 -15 34 l5 27 -23 -21 c-13 -12 -26 -29 -29 -37
-3 -8 -6 4 -6 28 -1 26 3 41 9 37 6 -3 10 2 11 12 1 13 3 11 9 -7 8 -25 8 -25
9 4 1 16 9 37 18 46 17 15 19 15 30 -8 7 -13 13 -30 13 -37 0 -7 8 -12 18 -11
23 4 27 39 6 57 -16 13 -17 12 -11 -11 6 -24 5 -24 -8 -6 -11 14 -12 22 -4 27
6 4 8 12 5 18 -10 15 7 14 24 -1 12 -11 12 -10 1 4 -19 26 3 62 29 48 16 -8
18 -8 14 5 -4 8 -11 15 -18 15 -7 0 -6 3 2 9 9 5 23 -2 42 -20 33 -33 61 -39
53 -10 -2 10 3 25 12 35 9 9 13 16 9 16 -5 0 -3 5 4 12 16 16 15 50 -3 74 -17
23 -19 34 -5 34 6 0 15 -10 20 -22 5 -13 9 -16 9 -8 0 21 -20 46 -44 54 -16 4
-21 2 -21 -13 0 -11 5 -17 11 -15 5 3 1 -2 -10 -11 -11 -9 -19 -21 -18 -26 2
-5 -2 -9 -8 -9 -5 0 -7 -5 -3 -12 4 -7 3 -8 -4 -4 -6 4 -9 13 -5 21 3 9 -1 15
-11 15 -18 0 -22 -25 -5 -36 8 -5 8 -9 -1 -14 -16 -10 -3 -31 15 -24 10 4 13
-3 13 -25 l-1 -31 -18 30 c-11 18 -24 27 -33 24 -8 -3 -17 -1 -21 5 -9 16 -22
13 -22 -4 0 -8 5 -11 10 -8 6 4 8 -1 4 -11 -4 -10 -7 -20 -7 -22 0 -2 -4 -4
-10 -4 -5 0 -10 7 -10 15 0 8 -4 15 -10 15 -12 0 -13 -13 -3 -24 11 -11 10
-30 -1 -38 -5 -4 -16 1 -24 10 -7 9 -11 11 -7 4 3 -7 3 -22 0 -33 -6 -17 -9
-19 -17 -8 -7 10 -8 8 -5 -8 3 -16 0 -23 -9 -23 -14 0 -18 10 -15 41 1 9 -5
22 -14 29 -14 11 -14 10 -6 -14 7 -18 7 -26 0 -26 -6 0 -7 -5 -3 -12 5 -7 3
-8 -6 -3 -8 5 -18 1 -27 -10 -7 -11 -13 -13 -13 -6 0 7 -4 9 -10 6 -17 -11
-32 5 -19 21 15 19 2 18 -18 -1 -8 -8 -19 -13 -24 -10 -5 4 -9 2 -9 -4 0 -5 3
-11 8 -14 4 -2 1 -2 -6 0 -19 4 -54 -16 -47 -27 3 -6 -1 -7 -10 -4 -14 6 -14
8 1 25 9 11 13 19 8 20 -5 0 -18 2 -30 3 -12 1 -21 -2 -20 -8 1 -6 -3 -11 -9
-12 -17 -2 -65 18 -61 25 3 4 -4 7 -15 7 -10 0 -19 -4 -19 -8 0 -4 -4 -8 -9
-8 -5 0 -8 11 -5 25 3 17 0 24 -8 23 -9 -2 -13 9 -13 30 0 21 -4 31 -12 28 -6
-3 -14 2 -17 10 -4 10 -13 13 -31 8 -17 -4 -25 -2 -25 7 0 8 -11 3 -24 -13
-19 -21 -25 -24 -30 -12 -3 9 -1 12 4 9 16 -10 12 11 -5 25 -8 6 -19 9 -26 5
-8 -6 -10 5 -6 36 3 29 0 47 -9 57 -18 18 -18 32 1 32 8 0 15 -7 15 -15 0 -8
4 -15 9 -15 14 0 21 29 9 36 -7 4 -6 9 3 15 23 14 32 10 26 -11 -5 -19 7 -28
16 -12 2 4 2 2 1 -5 -2 -7 1 -15 6 -18 17 -10 15 30 -3 48 -14 14 -15 22 -7
37 11 20 10 21 -12 24 -6 0 -13 7 -16 14 -2 8 3 12 14 10 11 -2 23 6 30 20
l12 23 21 -27 c11 -15 21 -21 21 -15 0 7 5 9 13 4 6 -4 24 -8 39 -8 21 -1 25
2 16 13 -8 9 -13 10 -18 2 -5 -8 -9 -7 -13 3 -7 18 26 30 41 15 6 -6 12 -6 17
1 3 6 1 10 -6 9 -6 -2 -14 3 -17 11 -3 9 0 11 8 6 10 -6 11 -4 4 6 -12 20 -14
39 -3 39 6 0 8 4 5 9 -3 5 2 8 12 7 10 0 16 6 16 16 -1 10 2 15 7 12 5 -3 9
-1 9 5 0 6 7 7 17 4 12 -5 14 -3 8 7 -6 10 -4 12 8 7 20 -7 22 4 5 21 -9 9 -9
12 3 13 7 1 17 1 22 0 4 0 7 3 7 9 0 5 -13 8 -29 7 -20 -1 -27 -6 -23 -16 3
-9 1 -12 -6 -7 -7 4 -12 13 -12 21 0 10 -18 13 -75 12 -53 -2 -76 2 -80 11 -3
8 0 10 7 6 7 -5 9 0 6 14 -4 15 -2 22 8 22 8 0 14 5 14 10 0 6 11 10 25 10 14
0 25 5 25 10 0 6 -4 10 -10 10 -5 0 -10 7 -10 15 0 9 -12 21 -27 28 -34 14
-43 25 -43 55 0 17 6 22 28 23 15 1 31 1 36 0 5 -1 12 3 16 9 5 8 12 6 24 -5
16 -16 17 -16 11 8 -8 29 9 44 30 27 18 -15 36 -5 28 15 -3 9 5 24 18 36 l24
20 -26 -16 c-31 -19 -49 -6 -49 35 0 6 -4 10 -9 10 -12 0 -8 -31 8 -59 7 -13
8 -21 3 -17 -6 3 -36 -5 -68 -19 -70 -31 -75 -31 -102 0 l-22 25 48 2 47 1
-45 4 c-24 3 -50 8 -56 13 -6 6 -14 6 -20 0 -5 -5 -25 -10 -44 -13 -30 -3 -28
-4 13 -5 29 -1 47 -7 48 -14 1 -7 2 -24 2 -38 1 -14 7 -24 15 -23 7 2 12 -7
12 -22 0 -18 -5 -25 -20 -25 -11 0 -20 5 -20 10 0 6 6 10 13 10 9 0 9 2 -1 9
-8 4 -13 12 -12 17 1 5 -3 10 -9 12 -6 2 -9 -10 -6 -33 5 -34 4 -36 -17 -29
-13 4 -26 11 -29 16 -4 6 -14 6 -28 -2 -24 -13 -61 -5 -61 13 0 7 -4 6 -10 -3
-8 -12 -10 -11 -10 7 0 20 5 21 66 22 37 0 69 3 72 6 3 3 -6 5 -20 5 -30 0
-53 23 -44 45 4 11 -2 15 -25 15 -19 0 -38 9 -52 24 -19 20 -24 21 -35 10 -17
-18 -25 -18 -52 4 -26 21 -44 100 -27 120 6 7 19 11 28 9 17 -5 17 -3 2 19 -8
13 -11 24 -6 24 6 0 18 -17 27 -38 10 -21 25 -43 36 -49 16 -11 19 -8 24 21 3
18 16 43 28 55 17 19 28 22 57 17 20 -3 45 -16 56 -28 l19 -23 26 26 c47 48
154 89 171 65 4 -5 15 1 25 13 14 16 30 21 65 21 27 0 49 5 51 11 5 16 113 15
132 0 8 -7 20 -10 26 -6 5 3 10 -1 10 -9 0 -9 4 -16 9 -16 6 0 8 -10 6 -21 -4
-20 -3 -20 14 -5 15 14 20 14 37 1 13 -10 15 -17 8 -22 -6 -5 -19 -25 -28 -45
-12 -24 -23 -35 -32 -31 -8 3 -14 -1 -14 -9 0 -8 7 -15 15 -15 8 0 15 4 15 9
0 5 5 6 12 2 8 -5 9 -2 5 9 -5 13 -1 17 14 17 11 0 17 4 14 10 -3 6 1 7 9 4
14 -5 14 -8 1 -21 -8 -8 -15 -16 -15 -19 0 -9 56 33 91 68 21 20 40 34 45 30
4 -4 4 -2 1 4 -8 14 13 33 44 39 13 3 27 12 32 20 9 17 27 11 27 -8 0 -8 -3
-8 -9 1 -7 11 -9 11 -14 -2 -6 -15 4 -21 26 -17 5 1 5 -4 1 -10 -3 -6 0 -15 7
-20 12 -7 11 -9 -1 -9 -8 0 -21 -9 -28 -20 -10 -17 -10 -23 3 -36 8 -9 15 -20
15 -25 0 -6 5 -7 12 -3 7 4 8 3 4 -5 -6 -9 -11 -9 -22 0 -11 9 -14 8 -14 -4 0
-8 -6 -18 -12 -20 -7 -3 -3 -6 10 -6 23 -1 30 -15 12 -26 -6 -3 -9 -18 -9 -33
1 -21 2 -23 6 -7 7 28 33 64 33 45 0 -10 3 -11 11 -3 7 7 8 22 0 48 -8 31 -8
35 5 24 11 -9 14 -8 14 3 0 15 35 88 47 97 16 12 45 80 48 113 2 18 8 32 13
31 6 -2 14 6 17 17 4 11 10 20 14 20 9 0 8 37 -2 46 -4 4 -7 18 -7 30 0 13 -4
25 -10 29 -5 3 -7 12 -3 20 3 10 -1 15 -12 15 -9 0 -13 5 -10 10 3 6 1 10 -6
10 -18 0 -60 50 -53 62 4 6 1 9 -7 6 -8 -3 -34 17 -60 44 -25 26 -49 48 -53
48 -4 0 -23 16 -42 35 -19 20 -39 33 -44 30 -6 -3 -10 -3 -10 2 0 4 -15 14
-32 22 -18 7 -46 20 -62 27 -16 8 -35 14 -43 14 -7 0 -13 4 -13 8 0 5 -17 14
-39 20 -75 23 -107 9 -56 -24 14 -9 25 -21 25 -28 0 -6 23 -24 50 -40 67 -40
163 -134 156 -152 -3 -8 1 -14 8 -14 16 0 27 -65 13 -79 -5 -5 -4 -17 2 -28
11 -16 11 -15 6 7 -5 21 -4 22 5 7 6 -9 15 -15 21 -12 15 10 22 -24 9 -40 -17
-20 -40 -19 -40 3 -1 16 -1 16 -11 -1 -6 -9 -14 -15 -18 -13 -4 3 -8 -7 -7
-22 1 -21 6 -27 24 -26 14 0 21 -4 18 -12 -6 -15 25 -43 42 -37 6 3 12 0 12
-7 0 -6 -5 -8 -12 -4 -7 5 -9 2 -5 -8 8 -22 -27 -34 -98 -32 -190 5 -305 2
-299 -7 2 -4 -11 -6 -29 -5 -17 2 -38 -2 -44 -7 -7 -5 -13 -7 -13 -4 0 3 -13
1 -30 -4 -16 -6 -28 -15 -25 -19 3 -5 -9 -5 -27 1 -17 5 -34 5 -37 1 -10 -12
-31 -13 -31 -1 0 6 -7 9 -15 5 -8 -3 -15 -1 -15 3 0 5 6 11 13 14 19 7 -55 1
-80 -7 -12 -4 -24 -2 -27 3 -4 6 -13 8 -21 4 -8 -3 -15 -1 -15 5 0 5 -14 8
-31 7 l-30 -3 20 20 c12 10 21 23 21 28 0 8 17 8 45 -1 6 -2 19 2 31 8 11 7
29 10 40 9 22 -4 54 11 70 32 6 8 16 12 22 8 11 -7 18 21 13 48 -1 5 3 13 10
17 16 9 4 40 -13 34 -7 -3 -18 3 -25 14 -10 15 -9 18 4 17 9 0 18 4 20 11 4
11 -86 11 -106 -1 -5 -3 -15 2 -22 12 -13 15 -12 16 3 4 9 -8 19 -9 22 -4 3 6
-2 13 -11 16 -15 6 -14 8 2 20 19 14 58 15 87 2 9 -4 25 -3 36 3 13 7 23 7 32
-2 10 -10 12 -8 6 7 -5 14 -2 17 9 12 8 -3 15 0 15 6 0 7 5 6 15 -2 9 -7 18
-10 22 -6 3 3 1 6 -5 6 -25 0 -10 21 29 40 23 12 39 23 37 25 -2 2 -48 -3
-103 -11 -109 -17 -145 -33 -213 -101 -25 -25 -52 -43 -65 -43 -18 0 -19 2 -7
10 13 9 13 12 -2 21 -10 5 -18 17 -18 24 0 10 -10 15 -28 15 -30 0 -62 40 -62
79 0 13 -6 21 -17 21 -10 0 -14 4 -8 8 6 4 11 15 11 25 1 13 -1 15 -10 8 -10
-8 -11 -3 -8 19 3 20 0 30 -9 30 -10 0 -10 3 -1 12 7 7 12 20 12 30 0 9 8 22
18 27 9 6 11 11 5 11 -13 0 -12 68 1 88 3 6 0 13 -6 15 -9 4 -9 8 -3 14 6 4
11 28 13 53 1 27 8 48 18 53 11 6 13 17 8 40 -4 18 -7 85 -7 150 1 64 -3 117
-7 117 -9 0 -6 87 3 97 4 3 5 21 1 38 -4 24 0 36 20 56 24 24 29 25 62 15 49
-15 78 -55 130 -181 24 -58 64 -138 90 -178 84 -132 154 -190 287 -239 68 -25
101 -32 193 -36 110 -4 111 -4 180 30 207 101 313 244 374 505 39 164 64 204
136 218 l29 5 -32 -15 c-17 -8 -35 -20 -38 -26 -6 -8 -2 -8 13 0 13 7 22 7 24
1 2 -5 35 -11 73 -12 52 -2 73 -7 83 -20 10 -13 52 -223 52 -260 0 -5 5 -6 10
-3 7 4 10 -8 10 -32 -1 -21 1 -53 3 -70 3 -20 0 -33 -6 -33 -7 0 -7 -4 1 -12
7 -7 12 -20 12 -30 0 -10 5 -18 10 -18 6 0 10 -5 10 -11 0 -5 -6 -7 -12 -3 -7
4 -5 -2 5 -13 18 -20 24 -48 8 -39 -5 4 -4 -5 2 -19 17 -36 23 -31 19 15 -3
25 1 45 10 54 11 10 17 51 22 138 8 148 9 161 24 166 7 2 12 15 12 28 0 17 4
23 12 18 8 -5 9 -2 5 9 -3 10 -2 17 3 17 5 0 12 9 15 20 3 11 12 20 19 20 16
0 10 83 -5 89 -16 5 40 31 66 31 21 0 23 3 15 30 -5 19 -5 30 1 30 6 0 7 5 4
10 -3 6 1 10 11 10 13 0 14 3 5 14 -9 11 -8 15 5 20 13 5 15 9 6 18 -15 15
-15 31 0 22 8 -5 9 -2 5 9 -4 10 -1 17 5 17 7 0 4 6 -7 14 -12 8 -16 20 -13
34 3 12 2 22 -3 24 -5 2 -10 13 -12 25 -1 11 -9 28 -16 37 -11 14 -11 16 3 16
16 0 16 18 0 68 -2 7 0 11 5 8 5 -3 11 10 13 30 2 19 1 37 -3 40 -10 6 1 78
13 82 11 5 10 32 -2 32 -5 0 -10 5 -10 10 0 6 8 10 18 10 14 0 15 2 2 10 -13
8 -12 10 4 10 15 0 16 3 6 15 -6 8 -8 19 -4 26 4 7 -3 19 -17 30 l-24 19 25
-3 c19 -1 26 3 28 21 2 12 8 20 13 17 15 -10 -3 29 -20 42 -14 11 -13 12 7 13
15 0 21 4 16 11 -4 7 4 20 17 31 13 10 17 16 8 13 -9 -4 -19 0 -22 8 -3 9 2
17 14 20 10 3 19 2 19 -2 0 -4 7 -8 15 -8 8 0 15 4 15 9 0 4 11 8 24 8 13 0
26 6 29 13 7 22 -5 47 -24 47 -10 0 -21 5 -24 10 -3 6 -1 10 5 10 6 0 8 5 5
10 -3 6 1 10 9 10 8 0 18 5 22 12 5 8 -2 9 -26 5 l-32 -7 23 21 24 20 -23 -11
c-19 -9 -27 -8 -41 4 -10 9 -23 16 -29 16 -7 0 -12 5 -12 10 0 6 9 10 21 10
11 0 17 5 14 10 -3 6 -1 10 4 10 6 0 11 7 11 15 0 8 6 15 14 15 8 0 17 4 20 9
3 4 -7 6 -22 3 l-27 -5 29 37 c23 31 25 36 9 27 -11 -5 -23 -8 -26 -5 -3 3
-15 1 -26 -6 -34 -18 -24 6 12 29 17 11 26 21 19 21 -9 0 -4 11 13 31 28 34
26 52 -3 26 -10 -10 -22 -17 -27 -17 -4 0 -23 -11 -41 -25 -36 -28 -53 -33
-35 -11 10 11 8 15 -6 20 -14 3 -13 4 3 3 32 -3 62 28 56 58 -4 24 -22 36 -22
15 0 -5 -7 -7 -15 -4 -11 5 -12 11 -4 25 5 11 15 17 22 13 7 -4 2 3 -10 15
-14 13 -35 21 -56 21 -29 0 -36 4 -41 26 -6 21 -9 24 -22 13 -12 -10 -13 -9
-8 7 4 10 16 31 26 46 27 39 22 57 -7 25 -30 -31 -37 -34 -28 -10 4 10 2 14
-4 10 -11 -7 -23 23 -23 60 0 17 -4 21 -17 16 -10 -4 -14 -2 -10 4 5 7 0 9
-14 6 -19 -5 -20 -4 -10 15 15 28 14 32 -5 25 -15 -5 -16 0 -12 43 4 39 3 44
-5 27 -5 -13 -16 -23 -24 -23 -7 0 -13 -5 -13 -12 0 -6 -3 -8 -6 -5 -4 4 -1
14 7 23 11 13 11 17 -3 25 -10 5 -14 17 -11 29 3 12 0 20 -6 20 -7 0 -9 -4 -6
-10 3 -5 1 -10 -5 -10 -6 0 -8 -4 -5 -10 3 -5 1 -10 -4 -10 -6 0 -16 20 -23
45 -9 35 -15 42 -25 33 -21 -17 -24 -5 -10 49 l14 51 -22 -16 c-13 -10 -20
-24 -17 -34 2 -10 -1 -18 -7 -18 -7 0 -10 -4 -7 -8 3 -5 -1 -9 -9 -9 -8 0 -15
7 -16 16 0 10 -2 12 -6 4 -2 -7 -9 -13 -14 -13 -6 0 -7 5 -3 12 5 8 2 9 -10 5
-14 -5 -16 -3 -11 12 4 14 0 20 -17 25 -32 8 -87 57 -70 63 17 6 15 23 -2 23
-10 0 -17 16 -21 48 -9 65 -15 83 -25 77 -5 -3 -16 5 -26 17 -14 20 -15 20 -9
3 4 -11 9 -29 12 -40 4 -19 3 -18 -16 3 -18 21 -20 21 -25 4 -4 -11 -3 -28 1
-38 6 -18 6 -18 -10 -2 -12 11 -15 27 -12 50 3 18 2 27 -1 20 -7 -16 -34 30
-34 59 0 16 -4 17 -25 9 -22 -9 -26 -6 -44 34 -10 24 -24 46 -30 50 -6 4 -2
-13 9 -36 25 -54 26 -81 3 -48 -9 14 -23 31 -30 38 -7 7 -17 21 -22 30 -8 14
-12 15 -22 5 -8 -9 -9 -13 -2 -13 6 0 14 -7 17 -16 5 -13 3 -14 -6 -7 -26 20
-54 21 -54 2 0 -11 6 -19 12 -19 6 0 12 -10 12 -23 0 -21 -5 -19 -44 21 -24
24 -44 50 -44 57 0 22 -52 77 -66 71 -8 -3 -14 -1 -14 4 0 6 -5 10 -11 10 -6
0 -1 -14 12 -31 15 -22 18 -34 11 -41 -13 -13 -42 7 -42 29 0 7 -8 17 -17 20
-10 4 -23 14 -30 22 -11 14 -12 14 -13 -3 0 -18 -1 -18 -18 -3 -10 10 -23 17
-29 17 -6 0 -14 7 -17 16 -4 9 -9 14 -13 11 -3 -4 -20 2 -37 12 -78 47 -126
72 -126 68 0 -3 17 -15 37 -27 28 -17 33 -24 23 -30 -10 -6 -21 -3 -32 7 -10
9 -18 13 -18 9 0 -4 -10 0 -22 8 -26 19 -42 21 -32 4 8 -13 -11 -3 -40 21 -13
10 -17 11 -11 2 5 -9 -1 -7 -19 4 -14 10 -26 14 -26 9 0 -4 -10 3 -22 16 -20
21 -22 21 -28 6 -5 -16 -10 -14 -38 12 -30 28 -53 33 -31 6 19 -24 -1 -37 -25
-16 -33 30 -54 39 -32 14 11 -12 17 -24 14 -27 -3 -3 -13 4 -23 15 -29 32 -44
19 -21 -18 7 -11 4 -12 -11 -3 -11 6 -24 7 -28 3 -3 -4 -6 -2 -4 3 4 18 -13
45 -35 57 -21 11 -21 11 -2 -11 28 -31 7 -26 -27 6 -23 23 -27 24 -21 8 6 -18
4 -17 -20 5 -23 21 -26 22 -20 5 7 -18 6 -19 -11 -5 -16 12 -15 9 4 -17 12
-18 18 -33 12 -33 -5 0 -13 5 -16 10 -4 6 -10 8 -15 5 -5 -3 -12 0 -15 6 -4 5
-14 8 -22 5 -8 -3 -11 -1 -8 4 3 6 2 10 -4 10 -6 0 -19 10 -31 22 -27 29 -26
8 2 -28 12 -16 15 -23 8 -16 -8 6 -21 12 -29 12 -8 0 -37 21 -64 48 -26 26
-45 39 -41 29 8 -23 -26 -18 -58 8 -13 11 -17 13 -10 5z m436 -1202 c-4 -7 6
-9 30 -6 20 2 36 0 36 -4 0 -4 7 -8 15 -8 8 0 15 -5 15 -12 0 -9 3 -9 12 0 19
19 59 15 65 -8 5 -19 6 -19 22 1 17 21 18 21 51 4 29 -15 32 -15 27 -1 -5 13
0 14 26 9 18 -3 36 -10 42 -14 16 -15 28 -10 15 6 -11 14 -10 14 15 5 16 -6
34 -9 41 -6 7 3 16 -4 19 -15 5 -14 12 -18 23 -14 10 4 25 10 35 12 9 3 17 9
17 14 0 5 5 9 11 9 5 0 7 -4 4 -10 -3 -5 -1 -10 4 -10 6 0 12 -8 12 -17 1 -16
2 -16 6 -1 2 9 10 19 18 21 18 8 56 -3 49 -14 -6 -11 -1 -11 20 -3 9 3 13 10
10 15 -3 5 -1 9 5 9 5 0 11 -3 13 -7 2 -5 18 -21 35 -37 l33 -30 -13 27 c-6
15 -18 27 -24 27 -7 0 -13 5 -13 11 0 5 5 7 10 4 6 -3 10 -1 10 4 0 6 -5 11
-12 11 -6 0 -9 2 -6 5 7 8 68 -15 110 -42 42 -26 48 -27 48 -12 0 5 -5 7 -10
4 -6 -4 -9 -1 -8 6 2 7 -1 13 -7 14 -13 0 -62 35 -51 35 5 0 29 -12 54 -26 24
-14 55 -27 68 -29 31 -3 38 -10 30 -31 -4 -9 -12 -14 -21 -10 -52 21 -51 21
-36 3 15 -19 46 -23 56 -7 9 15 34 0 28 -17 -5 -13 -3 -13 16 -1 20 12 20 14
4 26 -19 14 -6 17 16 3 7 -5 10 -14 6 -21 -4 -6 0 -19 9 -28 10 -12 12 -22 6
-32 -17 -26 -11 -31 11 -9 17 17 23 18 37 7 15 -12 16 -11 3 4 -7 10 -18 15
-25 12 -6 -3 -2 2 8 10 11 9 14 16 8 16 -7 0 -12 8 -12 18 1 14 4 13 22 -8 14
-16 19 -19 15 -7 -4 9 -4 17 -1 17 13 0 44 -22 44 -31 0 -6 7 -17 15 -25 8 -9
15 -12 15 -7 0 5 -5 14 -11 20 -8 8 -7 13 3 18 7 5 10 5 6 0 -4 -4 -1 -17 7
-28 11 -15 11 -25 3 -41 -10 -18 -9 -19 4 -8 13 10 17 10 21 -2 4 -9 1 -18 -4
-22 -14 -8 31 -55 45 -47 6 3 7 2 3 -3 -5 -5 -13 -9 -18 -9 -5 0 -9 -4 -8 -10
0 -5 7 -9 15 -9 18 2 18 2 -6 -26 -11 -13 -20 -28 -20 -34 0 -6 5 -3 11 7 5 9
15 17 22 17 7 0 6 -4 -3 -10 -13 -9 -13 -11 0 -20 13 -9 13 -10 0 -10 -11 0
-9 -4 5 -12 29 -16 29 -16 17 -31 -9 -10 -8 -18 3 -33 10 -13 14 -15 15 -5 0
11 3 11 16 1 13 -12 14 -10 3 14 -11 24 -14 25 -19 10 -4 -11 -9 -14 -13 -7
-4 6 -1 16 7 22 11 9 18 5 34 -21 11 -18 20 -42 19 -53 -1 -11 3 -20 10 -20
24 0 36 -22 24 -42 -8 -12 -11 -13 -9 -3 2 9 -1 17 -7 19 -18 7 -35 39 -29 55
5 13 2 15 -16 8 -16 -6 -24 -18 -26 -40 -2 -18 0 -32 6 -32 5 0 7 6 4 14 -3 8
0 17 6 21 6 3 10 3 9 -2 -3 -20 2 -34 11 -28 6 3 7 -1 3 -10 -5 -13 -7 -14
-14 -3 -7 10 -9 11 -9 0 0 -7 -4 -10 -10 -7 -6 3 -7 -1 -4 -9 3 -9 10 -13 15
-10 5 3 6 -2 3 -10 -3 -9 -11 -13 -17 -9 -6 3 -7 1 -3 -6 4 -6 9 -25 11 -42 3
-17 9 -37 15 -44 8 -9 7 -14 -1 -17 -8 -3 -10 -11 -4 -24 4 -10 7 -23 6 -28
-1 -5 1 -16 5 -25 11 -24 12 -51 3 -51 -5 0 -9 5 -9 12 0 6 -3 8 -6 5 -4 -4
-1 -14 6 -23 11 -13 11 -17 1 -24 -9 -5 -10 -10 -2 -14 6 -4 11 -18 11 -31 0
-13 5 -27 10 -30 6 -4 8 -10 5 -15 -3 -5 5 -19 17 -31 19 -18 19 -21 5 -16
-17 6 -16 4 2 -22 12 -16 21 -34 21 -41 0 -6 4 -9 9 -6 4 3 13 -6 20 -21 15
-32 42 -146 36 -151 -2 -3 -32 0 -67 6 -35 6 -94 14 -133 17 -52 4 -100 19
-190 56 -66 28 -126 58 -132 67 -7 9 -13 11 -13 6 0 -7 -20 -6 -57 2 -32 7
-58 13 -58 14 0 1 -20 4 -45 6 -79 8 -85 9 -99 18 -7 5 -16 5 -20 0 -6 -10
-96 -12 -106 -3 -5 6 -103 2 -140 -6 -11 -2 -28 -4 -38 -4 -10 -1 -15 -5 -12
-11 3 -5 -3 -10 -15 -10 -14 0 -19 4 -14 13 4 6 -2 4 -14 -7 -12 -10 -28 -16
-37 -13 -9 4 -15 1 -15 -8 0 -7 -4 -16 -9 -19 -5 -4 -6 5 -2 21 5 19 14 28 28
28 12 0 25 4 29 8 5 5 -4 7 -19 5 -31 -5 -135 -108 -129 -128 3 -8 0 -10 -7
-6 -7 4 -9 17 -6 28 6 16 2 15 -23 -8 -25 -24 -28 -30 -16 -42 15 -15 19 -26
6 -18 -5 3 -16 -4 -26 -16 -15 -17 -20 -18 -27 -7 -7 11 -9 11 -9 -3 0 -9 6
-19 13 -22 8 -4 7 -5 -3 -5 -35 2 -58 -12 -52 -34 4 -16 2 -19 -11 -14 -10 4
-17 2 -17 -3 0 -11 -30 -13 -54 -4 -9 3 -14 9 -11 13 2 4 -6 6 -18 5 -12 -1
-22 -3 -22 -4 0 -2 -10 -4 -22 -5 -13 -1 -23 2 -23 6 0 5 -7 9 -15 9 -8 0 -15
5 -15 11 0 6 7 9 15 5 9 -3 15 0 15 9 0 9 -6 12 -17 8 -11 -4 -14 -3 -9 5 9
15 -6 16 -20 2 -7 -7 -23 -4 -50 10 -21 10 -58 27 -81 37 -30 12 -39 19 -30
26 8 6 5 7 -10 4 -16 -4 -20 -1 -16 10 5 12 1 14 -18 8 -16 -4 -20 -3 -10 3
17 12 4 19 -31 17 -16 0 -28 3 -28 7 0 4 5 8 10 8 6 0 10 6 10 13 -1 6 -9 2
-19 -10 -15 -18 -25 -21 -59 -16 -23 3 -39 9 -36 14 3 5 -5 9 -17 9 -19 0 -20
2 -8 17 13 15 12 15 -8 2 -18 -11 -25 -11 -35 -1 -6 6 -23 12 -37 13 -15 0
-20 3 -12 6 10 4 8 9 -9 18 -13 7 -24 22 -25 33 -1 12 2 19 6 17 4 -3 9 1 12
9 3 8 16 16 29 18 22 4 22 5 3 13 -31 13 -51 38 -47 59 5 21 32 54 32 37 0 -5
-4 -13 -10 -16 -16 -10 -12 -45 5 -46 49 -4 59 -2 63 9 3 9 -3 10 -22 2 -21
-7 -26 -6 -26 5 0 8 5 15 11 15 6 0 8 7 5 16 -6 17 19 54 36 54 4 0 6 -13 3
-30 -3 -16 -1 -30 4 -30 10 0 20 56 12 67 -3 5 -13 8 -21 8 -8 0 -16 8 -18 18
-2 10 3 17 12 17 9 0 16 5 16 10 0 6 8 10 18 11 13 0 12 2 -5 9 -13 5 -23 14
-23 20 0 5 -8 10 -17 11 -11 0 -13 3 -5 6 6 2 12 14 12 26 0 16 -3 18 -9 9 -6
-11 -10 -10 -15 4 -4 11 -2 20 4 22 8 3 7 8 -1 18 -9 11 -9 14 1 14 7 0 10 6
7 14 -3 7 0 19 6 25 6 6 7 11 1 11 -6 0 -16 -6 -23 -12 -10 -11 -12 -7 -10 17
2 17 7 35 12 42 5 8 1 16 -12 25 -15 9 -17 15 -9 25 8 10 7 13 -3 13 -10 1 -8
5 5 15 25 19 14 30 -16 15 -17 -8 -15 -5 7 12 32 25 81 70 55 52 -8 -7 -29
-19 -47 -28 -31 -15 -33 -15 -43 5 -11 19 -10 20 12 8 22 -12 23 -11 6 8 -27
29 -22 41 16 39 23 -1 32 3 29 11 -3 7 0 13 7 13 6 0 9 4 6 9 -3 5 1 12 10 15
12 5 13 10 6 19 -7 8 -8 18 -1 27 8 12 9 11 7 -5 -2 -14 3 -20 19 -21 12 -1
20 3 17 8 -3 5 3 12 15 15 12 3 21 9 21 14 0 17 -5 24 -15 21 -5 -2 -6 0 -2 5
5 4 14 8 20 8 7 0 12 7 12 15 0 9 -8 14 -19 13 -13 -1 -15 2 -7 10 8 8 14 8
23 -1 14 -14 32 -16 23 -3 -3 5 3 16 13 23 10 7 21 21 25 31 3 9 13 17 20 17
16 0 50 34 42 42 -3 3 1 8 9 11 9 4 18 1 22 -5 4 -6 3 -8 -3 -5 -7 4 -10 -3
-9 -17 1 -19 4 -21 19 -12 9 6 15 17 12 25 -6 14 11 31 30 31 6 -1 1 -7 -9
-15 -19 -14 -19 -15 -1 -15 10 0 26 7 36 16 10 9 33 17 51 17 21 1 36 8 40 20
4 10 13 15 18 12 8 -5 7 -11 -1 -21 -7 -9 -8 -14 -1 -14 6 0 14 9 17 21 4 11
12 18 18 16 18 -8 43 -14 35 -10 -21 12 -3 20 38 18 38 -3 43 -2 29 9 -14 10
-12 12 19 8 24 -3 33 -8 29 -16 -4 -6 6 -3 21 8 16 10 25 13 22 7 -11 -17 3
-13 30 8 13 10 20 22 16 26 -4 5 -1 5 6 1 7 -4 9 -12 6 -18z m-1383 -828 c10
0 19 6 20 13 0 9 2 9 6 -1 2 -6 9 -10 14 -6 5 3 9 2 10 -3 2 -24 9 -45 23 -74
13 -26 13 -29 1 -19 -10 8 -15 9 -15 2 0 -6 5 -14 10 -17 6 -3 10 -12 10 -18
0 -7 -7 -4 -14 6 -7 9 -19 17 -27 16 -10 0 -11 -2 -1 -6 6 -2 10 -9 6 -14 -5
-9 16 -13 44 -10 7 1 12 -2 11 -6 -4 -22 2 -34 14 -27 10 6 10 4 0 -7 -15 -15
-17 -33 -4 -25 5 4 7 -3 4 -14 -3 -11 -10 -20 -15 -20 -5 0 -7 4 -4 9 12 19
-6 41 -33 40 -23 -2 -24 -2 -3 -6 12 -2 22 -9 22 -14 0 -6 -6 -7 -12 -4 -7 4
3 -8 22 -26 19 -17 28 -29 18 -26 -12 4 -15 0 -13 -18 2 -22 0 -23 -19 -13
-19 10 -20 10 -7 -5 19 -24 45 -22 38 3 -3 12 -1 18 5 14 5 -4 8 -17 5 -30 -2
-13 0 -24 4 -24 5 0 9 -5 9 -10 0 -7 -6 -7 -17 -1 -15 8 -18 4 -19 -23 -1 -17
1 -23 3 -13 6 21 29 22 37 1 3 -8 2 -12 -4 -9 -6 3 -10 2 -10 -4 0 -15 14 -21
30 -11 12 7 12 11 0 27 -13 17 -13 17 5 1 22 -21 10 -40 -26 -42 -12 0 -24 -8
-26 -16 -4 -13 -3 -13 6 0 9 12 13 13 20 2 4 -8 12 -12 16 -10 5 1 9 -7 10
-20 2 -21 1 -21 -17 -5 -18 16 -18 16 -12 -2 5 -13 4 -16 -4 -11 -7 4 -12 3
-12 -3 0 -5 5 -11 11 -13 7 -2 5 -9 -5 -17 -11 -9 -16 -10 -16 -2 0 6 -5 11
-11 11 -8 0 -8 -5 1 -15 10 -12 16 -13 26 -4 10 8 14 8 14 0 0 -6 -4 -11 -9
-11 -5 0 -37 -22 -71 -50 -34 -27 -67 -47 -73 -43 -5 3 -7 1 -4 -4 6 -9 -77
-53 -100 -53 -9 0 -9 1 -13 153 -1 69 2 102 11 113 8 9 13 43 14 81 1 57 -1
62 -14 46 -13 -17 -13 -17 -7 2 4 11 10 34 13 50 4 23 2 27 -6 15 -15 -22 -13
-8 4 27 8 17 16 57 16 89 1 38 7 65 17 77 8 9 12 20 9 24 -4 3 -7 1 -7 -5 0
-7 -5 -12 -12 -12 -6 0 -3 9 7 20 10 11 23 20 29 20 6 0 4 -5 -4 -10 -14 -9
-12 -10 15 -10 3 0 5 3 4 6 0 4 5 11 13 15 8 6 14 3 16 -6 2 -8 12 -15 23 -15z
m2275 -380 c205 -100 261 -358 134 -618 -108 -218 -329 -324 -554 -266 -73 19
-158 64 -204 107 -38 36 -134 188 -139 218 -2 11 -12 38 -23 59 -11 22 -25 72
-32 112 -9 62 -8 82 6 129 20 70 75 153 105 157 12 2 19 8 16 13 -4 5 -1 9 4
9 6 0 11 -5 11 -11 0 -6 9 -8 20 -4 28 9 25 1 -15 -38 -28 -27 -38 -46 -44
-88 -9 -52 -6 -79 8 -79 4 0 5 -15 3 -34 -3 -30 -1 -35 20 -38 17 -2 22 -9 21
-26 -2 -12 1 -22 6 -22 14 0 21 -29 9 -36 -7 -5 -8 -2 -3 7 6 11 5 12 -6 1
-11 -10 -7 -18 21 -47 78 -78 227 -118 353 -95 l72 14 -67 7 c-70 8 -138 28
-138 41 0 4 8 4 17 1 11 -5 15 -2 11 8 -2 8 9 28 25 44 17 17 27 24 23 18 -4
-8 -1 -13 8 -13 9 0 16 5 16 11 0 8 5 7 15 -1 13 -11 14 -10 9 4 -5 14 -2 16
20 10 20 -5 26 -2 26 10 0 9 6 17 13 17 44 5 56 7 87 17 49 15 100 17 133 3
40 -16 41 -14 12 13 -19 18 -22 25 -11 29 8 3 24 3 35 0 13 -3 21 -1 21 6 0 7
-4 9 -10 6 -5 -3 -10 -2 -10 3 0 21 -59 71 -120 102 -36 18 -68 38 -72 44 -6
8 -8 7 -8 -2 0 -10 -7 -9 -30 3 -16 8 -33 15 -37 15 -5 -1 -9 8 -11 19 -2 11
-13 22 -25 24 -19 4 -18 4 5 6 14 0 28 5 30 11 2 6 16 6 41 -1 26 -7 48 -7 70
0 38 12 107 12 107 1 0 -5 -5 -10 -11 -12 -14 -5 0 -38 17 -38 8 0 14 -4 14
-10 0 -5 -8 -6 -17 -3 -15 6 -15 5 -3 -8 7 -8 22 -16 33 -16 11 -1 25 -7 31
-13 8 -8 -1 -9 -34 -5 l-45 5 50 -14 c53 -15 107 -17 98 -3 -3 5 -14 7 -24 4
-11 -3 -17 -2 -14 3 9 15 88 22 97 8 6 -10 8 -10 8 0 0 23 -37 51 -60 45 -19
-5 -21 -3 -15 16 4 13 2 21 -5 21 -6 0 -9 4 -6 9 3 5 -10 12 -29 15 -19 4 -39
14 -44 24 -6 9 -11 13 -11 9 0 -5 -20 3 -45 16 -25 14 -47 22 -50 17 -3 -5 -1
-11 5 -15 16 -10 12 -25 -7 -25 -14 0 -15 2 -5 9 11 7 10 10 -3 15 -9 3 -26 7
-38 7 -13 1 -8 4 12 8 46 8 48 21 11 61 l-30 33 42 -7 c24 -3 70 -20 104 -36z
m-2232 -425 c-4 -8 -1 -15 5 -15 6 0 11 5 11 10 0 6 10 10 21 10 18 0 19 -2 9
-15 -15 -18 1 -20 18 -3 10 10 15 10 22 -2 13 -20 13 -33 0 -25 -5 3 -10 2
-10 -4 0 -5 4 -13 10 -16 6 -4 4 -15 -6 -30 -9 -13 -13 -29 -9 -35 3 -5 2 -10
-3 -10 -6 0 -8 -8 -5 -19 3 -10 -3 -33 -11 -50 -9 -17 -14 -32 -11 -32 3 -1
10 -2 15 -3 6 0 9 -5 8 -11 -2 -5 -6 -9 -11 -7 -13 4 33 -79 75 -138 22 -30
63 -77 91 -104 l52 -48 -45 33 c-48 35 -146 143 -169 187 -40 75 -71 189 -71
258 0 61 4 84 16 84 2 0 1 -7 -2 -15z m1012 -802 c3 -18 10 -36 15 -39 19 -11
9 -32 -13 -26 -14 3 -19 1 -14 -6 3 -6 18 -8 32 -6 21 4 25 2 20 -12 -5 -12
-2 -15 9 -10 9 3 13 2 10 -4 -3 -6 1 -13 9 -16 9 -3 13 -11 10 -16 -4 -7 -10
-4 -16 6 -5 9 -16 16 -23 16 -8 0 -15 5 -15 12 0 6 -3 9 -6 5 -3 -3 -23 3 -42
14 -20 10 -50 19 -66 19 -27 0 -96 42 -96 58 1 25 18 32 58 24 32 -8 44 -7 53
4 6 8 15 12 19 9 4 -3 11 5 14 18 6 21 7 22 21 3 8 -11 18 -34 21 -53z m-642
-370 c16 -67 41 -139 53 -151 7 -7 13 -18 13 -24 0 -5 7 -8 15 -4 8 3 15 1 15
-4 0 -6 6 -10 14 -10 8 0 17 -9 21 -19 3 -12 12 -18 20 -15 10 4 16 -5 20 -29
4 -20 14 -38 22 -41 8 -3 11 -11 8 -16 -4 -6 -1 -18 7 -27 11 -14 11 -16 -2
-8 -12 6 -13 5 -2 -6 14 -16 16 -59 2 -59 -5 0 -10 -5 -10 -11 0 -6 7 -9 15
-5 8 3 15 0 15 -7 0 -20 -16 -38 -30 -35 -7 2 -15 -3 -18 -11 -3 -8 0 -11 7
-7 7 5 8 1 4 -10 -4 -11 -8 -13 -11 -6 -2 7 -8 9 -14 6 -6 -4 -8 2 -3 16 6 18
4 22 -9 17 -8 -3 -18 -1 -22 5 -4 7 -3 8 4 4 7 -4 12 -1 12 8 0 9 5 16 10 16
6 0 10 5 10 11 0 5 -4 8 -9 5 -5 -4 -11 -3 -14 1 -2 5 -2 2 0 -5 1 -8 -3 -12
-9 -9 -8 2 -12 16 -10 33 2 16 -1 25 -5 19 -13 -16 -33 -16 -27 0 4 8 1 15 -5
15 -6 0 -10 3 -9 8 3 15 -23 92 -32 92 -6 0 -10 5 -10 11 0 6 -8 23 -19 37
-26 38 -63 155 -57 183 12 62 30 76 40 32z m500 -475 c-5 -7 -1 -9 13 -6 12 3
30 -3 44 -14 13 -11 17 -16 9 -12 -12 6 -13 4 -2 -7 6 -7 12 -21 12 -32 0 -10
4 -16 9 -13 4 3 8 -5 8 -17 1 -41 3 -48 14 -41 7 4 10 1 7 -7 -3 -8 -10 -14
-15 -14 -6 0 -15 -4 -20 -9 -5 -5 -3 -6 5 -2 7 4 12 1 12 -7 0 -8 -11 -17 -25
-19 -18 -4 -22 -2 -16 6 5 6 9 16 9 21 0 16 -19 35 -29 29 -14 -8 0 -25 14
-18 9 5 8 3 0 -6 -10 -11 -17 -8 -35 15 -12 16 -22 38 -22 49 0 12 -7 27 -16
33 -13 11 -13 14 0 23 8 5 10 10 5 10 -18 0 -15 39 3 43 9 3 18 5 20 6 2 0 0
-4 -4 -11z"/>
<path d="M5416 7898 c-14 -19 -13 -23 9 -50 20 -24 22 -32 13 -47 -15 -25 -4
-53 18 -44 14 5 16 3 11 -11 -5 -13 -3 -17 7 -13 17 7 46 -93 51 -182 2 -34 7
-77 11 -94 l8 -32 8 45 c21 110 20 158 -2 261 -23 106 -48 162 -80 179 -27 15
-37 12 -54 -12z"/>
<path d="M4934 6275 c17 -26 13 -51 -6 -39 -7 5 -8 2 -3 -6 5 -8 3 -11 -6 -8
-8 3 -15 11 -15 19 -4 40 -7 40 -15 0 -5 -27 -5 -49 1 -56 6 -7 2 -15 -11 -23
-11 -7 -24 -23 -28 -35 l-9 -22 -11 25 c-11 23 -11 23 -6 -9 4 -29 3 -32 -10
-21 -13 11 -14 10 -9 -5 6 -14 4 -16 -7 -10 -11 6 -12 5 -1 -6 14 -15 16 -33
3 -24 -10 6 -31 -24 -31 -44 0 -5 6 -16 13 -23 8 -8 10 -22 6 -38 l-7 -25 -1
27 c-1 21 -5 26 -18 21 -11 -4 -12 -8 -5 -11 7 -2 12 -8 12 -13 0 -4 -8 -5
-17 -2 -12 5 -15 2 -11 -8 3 -8 -3 -34 -13 -59 -17 -42 -18 -43 -17 -13 1 17
6 29 10 27 10 -7 9 15 -2 41 -8 19 -9 19 -9 -3 -1 -13 -5 -20 -11 -17 -9 6 -8
-16 6 -82 2 -12 -2 -28 -10 -35 -7 -8 -16 -29 -20 -48 -4 -19 -9 -48 -13 -64
-4 -21 -2 -27 6 -21 7 4 10 14 7 22 -3 8 1 27 9 42 8 16 11 31 8 35 -4 3 -3 6
0 6 4 0 13 -12 21 -27 l15 -28 -6 34 c-5 29 -4 33 10 28 11 -4 17 -1 17 8 0 9
6 12 15 9 8 -4 15 -3 15 1 0 3 -7 13 -15 21 -13 14 -15 14 -15 0 0 -9 -8 -16
-19 -16 -17 0 -18 3 -8 24 8 16 17 22 30 18 16 -4 18 -1 12 18 -5 16 -4 20 5
15 9 -5 10 -2 5 14 -5 15 -2 21 9 21 9 0 16 9 16 20 0 11 6 19 13 18 8 -2 11
10 10 37 -1 22 1 32 3 23 9 -29 27 -21 20 8 -5 18 -3 24 5 18 7 -4 10 -2 7 7
-3 8 -13 13 -22 13 -9 -1 -16 4 -16 12 0 8 10 14 26 14 14 0 23 -4 20 -8 -3
-5 1 -9 9 -9 8 0 15 9 15 19 0 15 5 18 23 13 18 -6 20 -5 10 6 -7 7 -13 21
-13 32 0 11 -4 15 -12 11 -7 -5 -8 -3 -3 5 5 9 10 10 18 2 17 -17 24 -13 22
14 -3 26 15 75 27 75 10 0 -3 32 -18 48 -21 21 -27 13 -10 -13z"/>
<path d="M210 3721 c0 -4 17 -20 38 -34 90 -59 392 -393 392 -433 0 -9 136
-187 159 -208 11 -11 21 -23 21 -28 0 -5 13 -28 29 -51 43 -63 107 -183 140
-264 16 -39 47 -102 69 -140 63 -107 75 -132 121 -238 52 -119 110 -236 124
-250 6 -6 5 -2 -1 10 -5 11 -28 74 -50 140 -132 392 -224 604 -326 755 -17 25
-36 54 -42 65 -31 55 -147 247 -181 299 -21 33 -56 89 -78 125 -31 48 -49 67
-70 73 -20 5 -39 22 -59 53 -33 54 -66 81 -77 63 -10 -16 -39 8 -39 33 0 27
-19 23 -26 -6 l-6 -24 -69 34 c-38 20 -69 31 -69 26z"/>
<path d="M6741 2860 l-32 -31 -40 23 c-36 20 -44 21 -82 10 -100 -29 -165 -34
-232 -19 -50 12 -74 13 -103 4 -20 -5 -75 -11 -122 -12 -84 -1 -311 -24 -319
-31 -3 -3 0 -9 6 -15 8 -8 49 -6 144 5 114 14 215 22 339 26 14 1 62 -2 108
-6 65 -5 95 -3 145 11 76 22 94 22 121 -3 21 -19 80 -37 70 -21 -3 5 7 21 21
35 21 21 33 25 60 21 29 -5 32 -3 28 14 -9 32 -73 26 -112 -11z"/>
<path d="M30 2874 c0 -12 44 -84 51 -84 5 0 9 -8 9 -18 0 -52 58 -124 192
-239 21 -18 38 -37 38 -43 0 -5 5 -10 11 -10 12 0 92 -59 97 -72 2 -5 8 -8 13
-8 14 0 129 -82 129 -92 0 -4 -1 -10 -2 -12 -7 -9 61 -55 95 -64 43 -12 46 -8
15 22 -13 12 -47 51 -76 88 -29 37 -72 82 -95 100 -23 18 -50 43 -60 55 -10
13 -25 30 -33 37 -8 8 -14 19 -14 25 0 6 -5 11 -11 11 -6 0 -29 16 -50 35 -22
19 -42 35 -47 35 -4 0 -12 10 -17 23 -6 12 -15 22 -22 22 -6 0 -23 10 -36 22
-14 12 -35 27 -47 33 -14 8 -20 18 -17 30 3 13 0 17 -10 13 -9 -4 -16 2 -20
16 -3 11 -9 21 -14 21 -5 0 -8 6 -6 13 1 6 -4 11 -10 10 -7 -2 -13 3 -13 11 0
7 -11 16 -25 18 -14 3 -25 4 -25 2z"/>
<path d="M5700 2857 c-14 -7 -36 -20 -50 -29 -14 -9 -55 -22 -92 -29 -58 -11
-79 -10 -155 4 -100 19 -162 21 -213 7 -108 -30 -225 -42 -490 -51 -282 -10
-537 -12 -549 -5 -23 14 -183 15 -296 1 -150 -17 -245 -19 -296 -5 -19 5 -60
28 -90 51 -51 39 -57 41 -109 36 -30 -3 -82 -18 -115 -33 -75 -36 -171 -43
-268 -20 -90 21 -141 20 -217 -4 -35 -11 -92 -25 -128 -31 -78 -12 -238 -3
-294 17 -57 20 -73 18 -144 -16 -56 -28 -74 -31 -190 -36 -83 -4 -137 -11
-151 -20 -11 -7 -43 -18 -70 -25 -26 -6 -76 -20 -111 -31 -34 -11 -70 -17 -78
-14 -12 5 -15 2 -10 -10 3 -8 6 -18 6 -20 0 -9 50 -3 84 11 20 8 66 22 104 31
37 8 76 21 87 28 12 8 74 16 160 21 130 6 144 9 193 37 57 32 57 32 172 3 98
-25 269 -16 377 20 92 30 122 30 262 0 73 -16 94 -17 155 -6 39 6 97 25 128
41 80 42 116 40 173 -10 25 -22 64 -44 86 -50 56 -15 182 -15 324 0 97 11 159
11 318 1 109 -6 202 -9 207 -6 5 3 120 7 257 9 249 4 374 17 516 53 60 15 76
16 150 3 180 -29 272 -20 357 36 26 18 48 25 65 21 20 -3 25 -1 23 12 -4 21
-55 26 -88 8z"/>
<path d="M6785 2793 c-11 -3 -29 -13 -40 -23 -23 -20 -73 -32 -81 -18 -3 5
-18 9 -32 8 -45 -3 -48 1 -12 16 33 13 33 14 5 8 -16 -3 -53 -16 -80 -29 -28
-13 -85 -28 -128 -34 -43 -6 -95 -20 -117 -31 -35 -18 -46 -19 -97 -9 -84 16
-301 22 -348 10 -32 -8 -23 -9 49 -4 64 4 87 2 82 -6 -5 -7 2 -9 22 -5 17 4
32 1 36 -5 4 -6 17 -11 29 -10 12 0 16 3 10 6 -19 7 -15 19 6 19 11 0 18 -3
16 -6 -2 -4 10 -5 28 -3 18 2 26 0 19 -3 -13 -6 -7 -24 9 -24 6 0 7 5 4 10 -4
7 19 8 67 5 40 -2 74 -9 76 -15 2 -6 8 -8 13 -4 9 5 82 -17 154 -47 17 -7 39
-14 50 -16 11 -2 25 -10 31 -18 13 -17 29 -21 19 -4 -8 12 56 3 90 -13 19 -9
19 -9 1 6 -10 8 -44 20 -75 27 -45 9 -155 43 -240 74 -24 9 -7 15 98 35 56 11
119 29 141 40 49 25 65 25 83 -1 20 -27 68 -32 85 -8 13 19 78 27 98 12 5 -5
1 0 -9 10 -11 9 -30 17 -44 17 -13 0 -21 4 -18 10 3 6 20 10 36 10 18 0 28 4
24 10 -6 10 -25 11 -60 3z"/>
<path d="M3337 2694 c-10 -10 -9 -44 2 -44 5 0 11 -9 14 -19 3 -14 1 -18 -9
-14 -12 4 -12 1 0 -23 53 -107 49 -117 -64 -139 -36 -7 -191 -51 -221 -63 -51
-20 -151 -111 -229 -209 -44 -56 -80 -103 -80 -106 0 -3 -15 -32 -34 -64 -58
-99 -102 -279 -90 -373 8 -65 25 -155 34 -180 65 -183 114 -280 192 -382 79
-104 220 -198 369 -248 111 -38 316 -46 429 -18 72 18 217 84 269 122 l48 36
16 -38 c9 -20 27 -55 39 -77 19 -33 23 -54 22 -120 0 -67 -6 -93 -34 -160 -27
-66 -46 -93 -106 -152 -71 -70 -167 -132 -179 -114 -3 5 -29 17 -58 27 -28 9
-61 23 -72 30 -49 34 -89 5 -74 -52 8 -29 73 -84 99 -84 5 0 10 -4 10 -10 0
-15 -14 -12 -74 15 -30 14 -62 25 -71 25 -30 0 -145 -45 -150 -58 -14 -37 57
-80 113 -69 17 3 39 -2 58 -14 26 -16 33 -27 36 -59 l4 -40 -33 35 c-22 24
-41 35 -60 35 -43 0 -107 -20 -120 -38 -19 -23 -16 -52 5 -51 9 0 12 3 6 5
-20 8 -4 46 17 41 11 -3 19 0 19 8 0 17 71 30 80 14 4 -6 13 -8 19 -5 6 4 20
-8 32 -28 31 -52 49 -47 49 14 0 44 3 50 20 50 28 0 33 -20 16 -62 l-15 -36
33 1 33 1 -15 29 c-21 41 -19 130 2 163 13 19 24 25 42 21 17 -3 29 2 40 17
12 18 16 19 25 6 7 -11 8 -8 4 11 -6 23 -2 28 22 36 71 25 211 137 256 203 23
35 10 4 -43 -105 -44 -89 -45 -91 -45 -192 0 -71 4 -106 13 -115 11 -11 12 -8
5 17 -4 17 -8 66 -8 111 0 78 2 84 61 205 69 141 82 181 92 294 l7 79 35 -31
c31 -28 34 -34 23 -52 -20 -32 -15 -68 11 -88 23 -19 23 -20 5 -31 -25 -16
-26 -78 -1 -90 24 -13 62 -8 72 8 12 20 2 32 -21 25 -24 -8 -40 2 -33 19 6 15
21 16 42 3 15 -10 16 7 2 33 -6 11 -6 27 -1 42 l9 23 10 -25 c6 -14 11 -18 11
-9 1 8 -20 40 -45 69 -63 74 -70 86 -98 166 -13 38 -43 117 -65 177 -57 146
-64 189 -55 337 5 99 9 120 17 100 l10 -25 10 33 c8 25 6 40 -5 65 -9 17 -21
44 -28 58 -7 15 -23 32 -37 38 -35 16 -37 14 -19 -14 19 -29 20 -35 5 -35 -5
0 -7 5 -4 10 3 6 2 10 -3 10 -6 0 -13 12 -16 28 -12 47 -51 142 -58 142 -5 0
-8 7 -8 15 0 8 -5 15 -11 15 -5 0 -7 5 -4 10 3 6 2 10 -2 10 -5 0 -9 9 -9 20
0 11 6 20 13 20 7 0 12 -3 11 -7 -1 -5 2 -23 6 -40 8 -36 26 -45 26 -14 0 30
20 39 120 50 l95 10 -97 -5 c-73 -4 -98 -2 -98 7 0 14 54 104 84 138 12 13 54
46 94 72 l74 48 26 -19 c15 -10 55 -26 90 -34 129 -32 170 -101 97 -164 -32
-29 -85 -50 -130 -53 -17 -1 -18 -2 -2 -6 29 -8 124 27 150 56 38 41 42 74 11
111 -32 38 -62 53 -134 70 -30 7 -64 19 -75 27 -18 14 -12 15 60 10 44 -3 99
-10 122 -17 55 -17 131 -80 165 -138 28 -48 36 -78 18 -67 -13 8 -13 -1 0 -26
9 -16 7 -19 -12 -19 -22 -1 -22 -1 -4 -15 10 -7 15 -18 11 -24 -3 -6 -1 -11 6
-11 6 0 9 -8 6 -20 -3 -10 -1 -20 4 -22 6 -2 6 -22 0 -51 -7 -42 -5 -54 21
-110 26 -55 28 -66 19 -99 -6 -20 -26 -49 -43 -63 -28 -24 -37 -26 -72 -19
-68 13 -114 9 -143 -12 -15 -11 -28 -27 -31 -35 -2 -8 4 -5 15 7 34 38 70 47
139 33 55 -11 65 -10 89 5 34 22 65 74 65 109 0 15 -11 50 -25 77 -14 27 -25
57 -24 67 0 10 17 -16 37 -57 33 -67 37 -83 37 -150 -1 -96 -26 -147 -125
-249 -99 -102 -130 -170 -130 -287 0 -78 20 -143 65 -211 20 -30 33 -58 30
-61 -8 -9 -164 -7 -202 2 -20 5 -24 4 -13 -3 7 -5 48 -13 90 -18 73 -7 74 -8
30 -14 l-45 -6 48 -1 c27 -1 68 3 92 9 38 10 47 9 61 -5 20 -20 25 -15 -61
-55 -38 -18 -89 -50 -111 -72 l-41 -40 -30 53 c-16 29 -33 62 -37 72 -3 10 -9
16 -12 14 -9 -9 26 -128 51 -177 21 -39 24 -42 25 -21 0 14 6 35 13 46 22 40
110 103 178 128 65 24 70 25 106 9 53 -22 146 -13 209 20 94 49 174 71 259 71
73 1 86 -3 152 -37 40 -20 79 -37 86 -37 37 0 277 -294 416 -508 l54 -82 73 0
c64 0 74 2 74 18 0 27 -29 63 -63 77 l-30 13 41 7 c39 6 60 20 49 31 -3 3 -21
1 -41 -4 -21 -6 -34 -7 -31 -1 4 5 1 9 -4 9 -6 0 -11 -7 -11 -15 0 -9 -9 -15
-22 -14 -20 1 -20 2 -4 6 13 3 15 7 7 12 -8 6 -6 14 7 32 32 39 54 119 47 164
-7 49 -44 98 -85 115 -29 12 -30 13 -13 32 16 18 16 18 -13 3 -16 -8 -37 -15
-47 -15 -16 0 -18 6 -13 38 8 52 15 141 9 119 -5 -20 -23 -23 -23 -4 0 21 -41
55 -75 62 -67 15 -66 14 -27 50 21 18 53 38 72 44 l35 11 -40 -6 c-25 -4 -53
-18 -77 -40 -64 -57 -77 -41 -18 22 29 30 50 58 47 61 -3 3 -26 -9 -51 -26
-25 -16 -46 -26 -46 -21 0 5 4 11 9 15 5 3 22 42 38 88 24 69 28 98 28 182 -1
93 -3 105 -34 167 -18 36 -71 111 -116 165 -118 141 -160 234 -180 403 -9 72
-29 150 -51 195 -26 55 -101 133 -154 160 -110 56 -384 105 -587 105 -108 0
-217 -30 -298 -81 -27 -17 -60 -31 -72 -31 -13 0 -23 -4 -23 -8 0 -4 -20 -15
-45 -24 -24 -10 -59 -28 -78 -40 l-34 -23 -18 30 c-25 41 -114 130 -196 194
l-67 51 23 -41 c12 -23 20 -48 17 -56 -3 -9 0 -11 8 -6 8 5 11 4 7 -2 -3 -5 2
-32 12 -59 28 -75 33 -94 24 -94 -4 0 -16 21 -26 48 -10 26 -26 65 -35 87 -9
21 -17 42 -18 45 -4 27 -18 60 -25 60 -5 0 -9 8 -9 18 0 10 -4 22 -10 28 -5 5
-12 24 -14 42 -8 71 -75 132 -146 132 -28 0 -54 28 -85 93 -10 21 -20 35 -23
32 -3 -3 -11 6 -16 21 -6 14 -14 22 -19 18z m1524 -722 c7 -35 4 -52 -7 -52
-8 0 -14 -7 -14 -16 0 -10 -6 -14 -15 -10 -9 3 -15 0 -15 -10 0 -11 -6 -15
-20 -11 -13 3 -20 0 -20 -9 0 -8 -9 -14 -20 -14 -11 0 -20 -5 -20 -11 0 -6 -7
-8 -16 -5 -11 4 -18 -1 -21 -14 -4 -15 -11 -19 -24 -15 -12 4 -21 1 -25 -10
-5 -12 -9 -13 -20 -4 -8 6 -14 8 -14 3 -1 -21 -22 31 -24 57 -2 24 1 28 16 23
12 -4 18 0 18 11 0 11 5 15 15 11 9 -3 18 1 22 9 3 10 12 13 24 10 13 -5 19
-1 19 10 0 9 5 15 12 13 26 -9 15 -25 -40 -53 -56 -29 -81 -65 -47 -65 26 0
195 100 195 115 0 14 -36 9 -46 -6 -11 -18 -34 -9 -34 13 0 17 3 19 12 10 17
-17 28 -15 28 4 0 10 6 14 15 11 8 -4 16 -3 19 1 6 10 46 13 47 4z m434 -379
c5 -16 9 -56 10 -91 2 -34 9 -70 16 -80 12 -15 12 -16 -2 -5 -9 7 -24 31 -34
53 -10 22 -22 40 -27 40 -5 0 -4 -9 2 -19 14 -27 13 -34 -5 -27 -8 3 -15 1
-15 -4 0 -6 -5 -10 -11 -10 -6 0 -9 6 -6 14 4 10 0 13 -14 11 -15 -3 -24 4
-34 28 -12 29 -12 34 4 47 10 8 21 24 25 35 7 18 9 17 22 -10 8 -18 13 -22 11
-10 -4 21 16 49 27 38 3 -4 6 -1 6 5 0 23 18 12 25 -15z m-1805 -1354 c0 -5 5
-7 10 -4 6 4 35 -3 64 -16 l54 -22 -12 -41 c-11 -38 -15 -41 -44 -39 -39 1
-68 21 -52 37 5 5 10 17 10 25 0 11 -5 9 -16 -7 -28 -40 -154 -25 -154 19 0 5
11 7 24 3 19 -4 32 2 57 25 32 31 59 40 59 20z"/>
<path d="M5836 2661 c5 -5 80 -13 167 -19 87 -5 161 -13 164 -16 4 -3 -4 -18
-18 -32 l-23 -25 44 20 c73 33 85 31 320 -54 41 -15 77 -29 80 -32 6 -7 -135
3 -170 11 -43 10 -132 13 -192 7 -31 -4 -54 -3 -52 1 3 4 -11 8 -30 8 -19 0
-38 -4 -41 -10 -4 -6 5 -10 19 -10 14 0 26 -3 26 -7 -1 -5 -68 -41 -150 -82
-120 -59 -154 -81 -174 -110 -36 -51 -33 -64 4 -19 17 21 43 39 61 43 17 4 72
27 124 51 51 24 128 53 171 64 l77 20 42 -25 c40 -23 174 -126 243 -186 19
-17 30 -35 27 -42 -4 -6 0 -4 9 7 14 17 17 17 47 2 40 -20 79 -21 79 -1 0 13
-97 95 -113 95 -3 0 -51 29 -108 65 -56 36 -106 65 -111 65 -4 0 -8 4 -8 9 0
4 42 0 93 -10 177 -35 201 -39 205 -34 10 10 -7 16 -62 22 -30 3 -54 9 -52 12
2 3 -13 5 -33 5 -20 -1 -64 4 -96 12 -33 8 -71 16 -85 19 -14 2 -33 10 -43 17
-15 12 -14 13 15 12 60 -2 69 -4 63 -14 -3 -5 -1 -10 4 -10 6 0 11 4 11 9 0 4
19 5 43 1 23 -4 82 -11 131 -15 98 -8 111 -9 141 -21 19 -7 19 -6 3 12 -9 11
-48 28 -87 39 -53 14 -68 22 -64 34 4 14 3 14 -5 1 -9 -12 -19 -11 -69 7 -32
11 -57 26 -56 32 2 5 -4 8 -13 4 -8 -3 -25 -1 -37 5 -12 6 -40 14 -62 18 -22
4 -43 8 -47 9 -5 2 -13 3 -19 4 -5 0 -8 5 -5 10 3 5 -1 11 -9 15 -8 3 -14 0
-12 -6 1 -6 -4 -13 -12 -16 -9 -3 -11 0 -6 8 5 7 4 11 -1 8 -5 -3 -58 -2 -119
3 -60 5 -139 11 -174 14 -36 2 -60 1 -55 -4z"/>
<path d="M1405 2540 c3 -25 15 -74 25 -109 11 -35 20 -91 20 -125 0 -58 24
-351 36 -446 3 -25 14 -88 24 -140 17 -86 26 -241 20 -360 -2 -38 -3 -41 -10
-20 -15 46 -11 -12 5 -92 14 -63 65 -191 65 -161 0 6 -6 75 -14 154 -8 79 -20
239 -26 354 -6 116 -15 241 -21 278 -5 38 -16 164 -24 280 -16 251 -24 293
-71 372 l-35 60 6 -45z"/>
<path d="M1927 2560 c-20 -4 -47 -16 -60 -27 -32 -28 -105 -73 -118 -73 -7 0
-34 -14 -60 -31 -27 -17 -58 -29 -71 -27 -21 3 -23 -1 -26 -44 -2 -32 1 -48 9
-48 8 0 8 -4 1 -12 -5 -7 -7 -37 -5 -66 5 -50 6 -51 20 -32 10 14 11 25 5 33
-25 32 23 126 50 99 11 -11 10 -12 -5 -6 -13 5 -16 2 -11 -9 3 -9 -1 -26 -10
-39 -33 -47 -14 -38 28 14 24 30 62 63 87 75 185 91 235 98 419 58 14 -3 -4 9
-39 27 -60 29 -72 31 -172 32 -103 1 -107 2 -91 19 9 10 36 27 59 38 24 11 43
22 43 24 0 6 0 6 -53 -5z"/>
<path d="M6739 2498 c-1 -24 -1 -46 0 -50 0 -5 -6 -8 -15 -8 -12 0 -15 -7 -12
-25 6 -28 -3 -32 -22 -10 -7 8 -17 12 -22 9 -5 -4 4 -14 20 -24 22 -14 31 -28
34 -54 2 -20 -1 -41 -6 -46 -7 -7 -6 -10 1 -10 7 0 11 -37 12 -104 2 -104 2
-104 -21 -100 l-23 5 24 -11 c23 -10 23 -12 17 -103 -10 -147 -9 -236 2 -327
6 -47 11 -92 11 -100 0 -8 4 -44 10 -80 6 -36 15 -143 21 -239 5 -96 12 -176
13 -178 2 -2 9 63 16 144 7 82 18 225 26 318 8 94 16 208 19 255 l5 85 -9 -70
c-17 -125 -17 -125 -48 -74 -23 40 -26 54 -27 154 -1 61 1 139 5 175 4 36 3
78 -2 94 l-8 30 41 -40 c32 -30 38 -33 28 -14 -7 14 -12 28 -11 33 1 4 -2 7
-7 7 -5 0 -11 9 -14 20 -5 18 -4 18 19 3 31 -20 31 -3 -1 27 -13 12 -22 27
-19 31 3 5 -1 9 -8 9 -10 0 -9 3 1 9 12 8 13 14 3 36 -13 28 -5 28 31 -3 33
-29 19 15 -19 57 -32 36 -35 46 -35 98 -1 72 -8 113 -20 113 -5 0 -10 -19 -10
-42z"/>
<path d="M1943 2345 c-76 -17 -122 -47 -236 -159 -48 -47 -92 -86 -98 -86 -5
0 -9 -28 -9 -62 l0 -62 36 39 c88 98 116 125 124 120 4 -3 6 3 3 13 -5 20 45
71 116 118 38 25 53 29 115 28 111 0 296 -16 296 -26 0 -4 5 -8 11 -8 8 0 8 4
0 14 -9 11 -6 19 16 36 22 18 37 21 73 17 40 -5 43 -4 25 9 -30 22 -82 21
-129 -2 -38 -18 -83 -18 -137 2 -61 21 -132 24 -206 9z"/>
<path d="M1770 1975 c-8 -10 -10 -28 -5 -52 4 -21 6 -85 5 -143 -1 -58 -1
-113 -1 -123 0 -17 -2 -17 -32 3 -18 11 -49 28 -69 36 -20 9 -39 23 -42 32 -2
10 -4 -15 -4 -55 1 -40 4 -71 7 -68 4 2 13 0 21 -6 12 -7 12 -9 -4 -9 -17 0
-18 -7 -10 -122 15 -202 12 -310 -11 -448 -14 -86 -28 -140 -35 -140 -4 0 -7
33 -5 73 3 64 2 69 -9 43 l-12 -29 -17 43 c-23 58 -30 47 -10 -15 12 -37 18
-111 23 -285 12 -395 17 -503 25 -551 6 -38 4 -47 -9 -52 -10 -4 -19 -1 -23 9
-6 16 -82 59 -90 51 -2 -3 5 -8 16 -12 31 -10 70 -62 82 -111 l12 -45 251 5
c282 5 286 5 286 23 0 19 13 16 28 -7 9 -15 23 -20 54 -20 23 0 38 3 34 7 -4
4 -16 8 -26 8 -11 0 -20 5 -21 10 0 6 -6 16 -12 24 -9 11 -9 13 0 8 6 -4 14
-1 17 5 3 7 4 4 3 -7 -2 -15 3 -19 21 -17 12 2 22 -2 22 -7 0 -6 6 -10 13 -9
6 2 11 -3 9 -10 -1 -7 8 -12 23 -12 25 0 26 2 23 54 -2 30 -6 52 -9 51 -3 -2
-20 5 -38 16 l-33 20 6 67 c8 78 -2 100 -55 118 l-34 11 3 67 c2 59 1 66 -17
66 -16 0 -39 -21 -92 -88 -16 -20 -47 -14 -81 18 -37 35 -38 36 -65 10 -16
-14 -23 -38 -30 -97 l-8 -78 -7 95 c-5 52 -8 111 -9 130 0 19 -6 42 -14 50
-17 19 -28 133 -17 180 l8 35 8 -37 c7 -39 26 -51 71 -45 14 1 22 -7 30 -29 5
-16 18 -42 28 -57 9 -14 17 -44 17 -67 0 -22 4 -40 9 -40 19 0 45 96 44 167
-1 51 3 76 13 84 20 17 17 52 -7 83 -20 25 -20 28 -5 60 9 18 15 51 13 72 -2
36 0 39 25 42 62 7 89 94 43 134 -14 12 -25 25 -25 28 0 4 17 12 38 18 54 17
88 50 111 107 11 28 20 42 20 33 1 -10 7 -18 14 -19 6 0 3 -4 -8 -9 -19 -7
-19 -8 -2 -15 10 -4 20 -5 23 -2 9 8 -5 45 -23 63 -12 11 -13 18 -4 27 6 6 11
25 11 42 0 20 10 43 25 61 24 27 27 58 13 122 -1 4 2 19 6 33 4 15 3 43 -2 63
-7 24 -7 38 0 42 6 4 5 10 -3 15 -12 7 -12 9 0 9 10 0 12 9 8 38 -5 25 -3 32
3 22 8 -12 10 -9 10 12 0 25 -2 26 -29 17 -26 -9 -30 -17 -46 -97 -9 -48 -17
-104 -17 -125 1 -22 -3 -50 -9 -64 -6 -16 -5 -31 1 -44 8 -13 7 -19 0 -19 -8
0 -8 -6 0 -20 12 -23 8 -25 -19 -8 -10 6 -26 8 -35 5 -17 -7 -62 -94 -53 -103
3 -3 9 8 15 23 5 15 18 39 29 52 l20 24 20 -23 c14 -14 20 -30 16 -44 -7 -31
-7 -49 2 -70 6 -15 5 -17 -5 -11 -9 5 -11 4 -6 -4 9 -15 -10 -76 -30 -92 -11
-9 -18 -9 -26 -1 -19 19 -45 14 -62 -10 -23 -33 -20 -63 9 -82 28 -18 34 -60
12 -90 -13 -17 -84 -39 -99 -30 -4 3 -8 19 -8 36 l0 31 47 -7 c38 -5 45 -4 35
6 -7 7 -36 13 -65 13 -54 0 -53 -2 -48 50 1 9 16 17 41 21 22 4 43 11 47 17 4
6 -4 8 -21 3 -55 -14 -10 44 54 68 51 20 90 52 90 75 0 10 -9 5 -25 -16 -14
-17 -42 -37 -63 -44 -20 -6 -45 -18 -54 -27 -13 -11 -18 -12 -18 -2 0 6 -12
26 -26 43 -20 24 -25 39 -22 68 2 21 0 35 -4 33 -19 -12 -8 -83 17 -112 32
-39 32 -55 -5 -94 -27 -30 -31 -31 -41 -15 -5 9 -18 17 -29 17 -16 0 -14 -4
11 -29 36 -36 37 -56 4 -77 -14 -9 -25 -21 -25 -28 0 -17 -49 -86 -62 -86 -18
0 0 62 26 90 32 33 43 75 22 83 -35 13 -15 56 38 82 23 12 34 61 17 78 -27 27
-1 120 46 170 31 32 48 34 62 8 8 -14 5 -30 -15 -67 -22 -41 -24 -51 -13 -76
15 -36 52 -38 75 -3 9 14 14 28 11 32 -4 3 -12 -6 -18 -21 -12 -25 -49 -37
-49 -15 0 6 7 38 16 71 14 55 14 62 -1 85 -12 18 -22 23 -39 19 -21 -5 -24 -1
-33 52 l-11 57 71 66 c40 37 70 70 66 73 -3 3 -41 -19 -86 -49 l-81 -54 -38
20 c-21 10 -45 19 -54 19 -12 0 -15 12 -15 52 0 29 5 56 10 60 6 5 5 8 -2 8
-7 0 -13 7 -13 15 0 8 5 15 10 15 6 0 10 23 10 50 0 28 -3 50 -7 50 -14 0 -32
51 -26 68 6 14 4 15 -9 4 -13 -10 -15 -9 -13 13 4 29 2 30 -15 10z m187 -524
c9 -20 11 -36 5 -40 -13 -9 -38 -60 -51 -106 -8 -31 -8 -44 4 -62 23 -34 19
-47 -25 -82 -30 -24 -40 -39 -40 -62 0 -31 -33 -92 -67 -122 -18 -15 -22 -16
-32 -3 -10 12 -9 26 3 70 18 62 20 125 6 178 -8 29 -7 45 5 74 8 20 15 45 15
55 0 10 30 50 66 89 73 77 83 78 111 11z m18 -461 c0 -19 6 -35 12 -37 7 -3
17 -19 23 -38 9 -27 8 -40 -4 -64 -21 -39 -20 -46 6 -82 21 -28 21 -31 5 -58
-21 -36 -27 -72 -15 -88 9 -11 -13 -118 -28 -131 -4 -4 -4 1 -1 11 4 11 -3 37
-18 64 -20 38 -22 50 -12 67 l12 21 3 -22 c2 -13 8 -23 13 -23 6 0 8 12 4 29
-11 50 -15 93 -9 102 3 5 14 4 26 -2 16 -9 19 -8 16 3 -3 7 -14 14 -25 16 -12
2 -29 12 -39 23 -18 20 -18 22 9 70 15 27 23 49 18 49 -5 0 -12 -7 -15 -16 -3
-8 -11 -12 -17 -8 -7 4 -9 3 -5 -4 3 -6 0 -17 -8 -25 -8 -8 -12 -17 -9 -21 4
-3 1 -6 -5 -6 -17 0 -15 11 12 71 24 50 26 76 5 64 -5 -4 -9 -14 -9 -23 -1 -9
-8 -28 -16 -42 -8 -14 -13 -17 -10 -8 5 17 -19 32 -36 22 -5 -4 -7 -20 -4 -36
5 -26 3 -29 -12 -23 -31 13 -77 22 -89 18 -24 -8 -13 -18 20 -19 36 -1 96 -23
121 -43 15 -13 14 -17 -11 -43 -15 -16 -33 -41 -39 -56 -11 -25 -12 -22 -13
36 -1 72 -12 82 -61 57 -31 -16 -34 -16 -52 3 -15 14 -19 33 -19 75 0 103 23
125 63 62 33 -51 64 -56 100 -16 15 17 28 38 28 45 0 18 59 68 74 63 6 -2 11
-19 11 -37z m-285 -175 c0 -23 30 -45 61 -45 33 0 33 1 18 -37 -6 -15 -11 -54
-11 -86 1 -35 -3 -55 -9 -51 -5 3 -16 0 -24 -6 -19 -16 -46 -5 -39 15 4 8 -1
26 -10 40 -9 13 -16 36 -16 50 0 14 -7 28 -16 32 -19 7 -13 53 12 90 15 24 34
23 34 -2z m434 -402 c-4 -21 -11 -45 -17 -53 -6 -8 -7 -12 -3 -8 5 5 14 -2 20
-14 6 -12 24 -25 39 -29 44 -12 52 -31 49 -110 -3 -59 -6 -68 -18 -58 -8 6
-14 17 -14 23 0 6 -13 20 -30 29 -26 16 -28 21 -19 44 5 14 7 28 4 31 -7 7
-34 -29 -35 -46 0 -20 -24 -9 -28 13 -2 9 0 15 5 12 5 -3 9 8 9 26 0 18 4 40
8 50 5 10 4 17 -2 17 -5 0 -15 -14 -22 -31 -8 -19 -16 -26 -20 -19 -5 9 -9 9
-14 1 -5 -8 -13 -8 -26 -1 -10 5 -31 10 -45 10 -22 0 -25 3 -20 20 4 11 2 20
-4 20 -6 0 -7 7 -4 17 4 10 2 14 -5 9 -6 -3 -10 -20 -10 -36 1 -17 -2 -33 -5
-37 -4 -3 -7 10 -7 30 0 20 5 39 11 42 7 5 4 14 -7 26 -9 10 -13 19 -7 19 5 0
19 -14 32 -30 19 -27 27 -30 65 -28 23 2 43 8 43 13 0 21 36 66 49 61 8 -3 11
0 7 10 -3 9 1 14 11 14 14 0 16 -7 10 -37z"/>
<path d="M4356 1761 c-3 -5 -15 -7 -26 -4 -21 6 -110 -17 -110 -28 0 -4 -13
-12 -30 -19 -22 -9 -30 -19 -30 -39 0 -14 -4 -32 -9 -40 -12 -18 -23 1 -32 54
l-6 40 -2 -41 c-1 -31 5 -46 24 -64 14 -13 25 -19 25 -13 0 5 13 10 28 10 15
0 53 16 83 35 70 45 154 65 179 43 9 -8 30 -15 47 -15 22 0 30 -4 29 -16 0 -9
5 -19 12 -21 27 -10 10 35 -28 72 -34 34 -48 40 -84 41 -23 0 -47 4 -53 7 -7
4 -14 3 -17 -2z"/>
<path d="M4295 1628 c-37 -22 -40 -27 -43 -75 l-3 -51 84 -1 c47 -1 96 3 111
9 24 9 26 14 24 51 -2 31 -10 47 -29 61 -41 31 -97 33 -144 6z"/>
<path d="M6820 1058 c0 -65 -9 -120 -20 -113 -12 7 -21 -197 -10 -234 5 -19 8
-37 5 -39 -3 -3 -1 -10 3 -16 14 -19 44 -107 39 -112 -3 -3 -13 7 -22 23 -12
22 -14 23 -10 6 11 -39 -9 -26 -64 42 -35 44 -51 73 -49 88 3 20 7 18 47 -23
l44 -45 -27 41 c-15 23 -37 46 -49 51 -21 10 -23 8 -25 -19 -2 -20 8 -43 33
-75 19 -25 35 -52 35 -59 0 -8 6 -13 13 -12 7 2 13 -9 14 -27 2 -29 2 -29 -7
-5 -6 20 -8 21 -8 5 0 -11 3 -29 8 -40 7 -18 8 -18 15 7 4 16 12 25 18 21 5
-3 7 -1 3 5 -3 6 -2 13 4 17 10 6 15 -20 12 -57 -1 -10 7 -41 18 -68 22 -56
25 -74 11 -65 -5 3 -19 35 -32 72 -16 50 -24 62 -31 50 -6 -11 3 -62 28 -154
40 -150 41 -170 19 -233 -8 -23 -15 -53 -15 -66 l0 -24 163 0 c152 0 165 1
182 20 11 12 20 28 21 36 5 30 14 27 14 -4 0 -19 -5 -32 -12 -33 -7 0 -4 -4 7
-9 11 -5 78 -9 149 -9 l128 -1 -6 27 c-5 21 -4 24 4 13 6 -10 10 -11 10 -2 0
6 8 12 17 12 9 0 14 3 10 6 -3 3 5 18 18 31 21 23 26 25 55 14 28 -9 31 -9 26
6 -5 13 -4 14 9 3 8 -7 15 -23 15 -35 0 -14 7 -25 20 -28 11 -3 20 -1 20 4 0
5 -5 9 -11 9 -5 0 -7 5 -4 10 4 6 13 3 23 -8 9 -10 13 -11 7 -4 -8 12 -6 14
13 8 25 -8 32 11 7 20 -11 5 -13 10 -5 19 5 6 7 15 3 18 -3 4 -1 7 5 7 7 0 12
10 13 23 0 21 1 21 9 2 4 -12 15 -27 24 -34 9 -7 13 -17 10 -22 -3 -5 0 -9 5
-9 6 0 11 18 11 40 0 22 -5 40 -11 40 -5 0 -7 5 -4 10 3 6 0 10 -7 10 -9 0 -9
3 -2 8 6 4 12 16 14 27 4 31 2 156 -3 161 -2 2 -27 5 -55 5 -29 1 -52 6 -52
12 0 5 -7 4 -15 -3 -9 -7 -18 -10 -22 -6 -3 3 -1 6 5 6 7 0 12 7 12 16 0 8 4
12 10 9 6 -4 7 1 3 11 -5 14 -3 16 11 11 10 -4 15 -3 11 3 -12 19 18 70 41 70
38 0 56 23 59 76 2 39 1 42 -4 14 -5 -31 -10 -35 -39 -38 -36 -4 -36 -2 -15
54 2 7 0 15 -6 18 -19 12 -49 -13 -56 -45 -5 -20 -11 -29 -21 -25 -8 3 -14 2
-14 -2 0 -4 -9 -8 -20 -9 -11 -1 -20 2 -20 8 0 5 -5 9 -11 9 -6 0 -9 -6 -6
-14 3 -8 -1 -20 -9 -27 -12 -10 -15 -10 -12 2 2 8 -3 13 -9 12 -7 -2 -13 2
-13 9 0 6 -9 3 -20 -7 -11 -10 -23 -15 -27 -12 -3 4 -1 7 5 7 9 0 9 5 0 19 -7
11 -16 17 -21 14 -5 -3 -4 -9 3 -13 8 -5 5 -9 -9 -13 -32 -8 -26 20 10 50 29
24 31 30 25 70 -6 48 -7 47 28 32 32 -15 70 8 80 46 13 50 -34 74 -69 35 -29
-32 -39 -23 -11 11 14 17 26 34 26 38 0 4 8 7 18 8 9 1 46 11 81 24 l65 22 34
-39 33 -39 -3 42 c-2 23 0 39 4 37 5 -3 7 14 7 38 -1 36 -2 39 -8 15 -6 -27
-12 -30 -136 -62 -71 -19 -175 -50 -230 -70 -189 -70 -413 -136 -500 -149 -16
-2 -38 -7 -47 -11 -14 -5 -18 -2 -18 13 0 12 3 23 8 26 4 2 7 22 6 43 -2 24 5
51 19 72 11 19 15 31 9 27 -7 -4 -26 -31 -42 -59 l-30 -52 0 73 c0 41 6 85 13
100 15 29 18 194 5 208 -5 4 -8 -18 -8 -48z m512 -327 c-6 -56 32 -78 71 -43
21 18 20 15 -2 -30 -12 -23 -12 -30 0 -44 20 -24 23 -58 4 -50 -8 3 -15 1 -15
-5 0 -6 -6 -9 -12 -6 -7 2 -26 -2 -42 -10 -18 -10 -26 -11 -21 -3 4 7 3 15 -2
19 -15 9 -42 127 -36 153 7 29 33 60 47 55 6 -2 10 -18 8 -36z m154 -228 c45
-34 57 -71 52 -157 -5 -72 -32 -143 -54 -139 -5 0 -17 -3 -27 -8 -23 -13 -34
14 -17 45 9 17 9 29 1 44 -8 15 -7 27 5 51 15 29 16 75 3 69 -10 -4 -49 33
-49 47 0 7 -7 18 -15 25 -16 14 -10 34 7 24 7 -5 9 -1 5 9 -13 35 38 29 89
-10z"/>
<path d="M372 437 c-15 -4 -79 -8 -142 -8 -63 0 -141 -2 -172 -5 l-58 -6 0
-167 0 -167 30 -11 c16 -6 38 -25 47 -42 l18 -31 218 0 c210 0 217 1 217 20 0
11 -4 20 -10 20 -5 0 -10 9 -10 20 0 11 -4 20 -10 20 -5 0 -10 12 -10 26 0 19
4 25 15 20 17 -6 21 19 5 29 -15 9 -12 35 4 35 11 0 14 10 13 34 -2 19 -6 38
-10 42 -4 4 -7 19 -7 33 0 24 1 24 15 5 9 -12 14 -14 15 -6 0 7 5 10 11 6 6
-3 10 1 9 12 -1 11 -2 24 -1 29 1 12 40 14 58 2 6 -4 14 -3 18 2 3 6 24 2 51
-9 25 -11 71 -24 102 -30 31 -5 108 -19 171 -30 62 -11 119 -19 125 -16 6 2 2
5 -9 5 -11 1 -83 17 -160 36 -129 32 -295 98 -281 112 3 4 23 9 43 13 24 5
-19 9 -120 11 -87 2 -170 0 -185 -4z"/>
</g>
</svg>
